<?xml version="1.0" encoding="utf-8"?>
<!-- Generator: Adobe Illustrator 27.5.0, SVG Export Plug-In . SVG Version: 6.00 Build 0)  -->
<svg version="1.1" xmlns="http://www.w3.org/2000/svg" xmlns:xlink="http://www.w3.org/1999/xlink" x="0px" y="0px"
	 viewBox="0 0 500 500" style="enable-background:new 0 0 500 500;" xml:space="preserve">
<g id="Background_Complete">
	<g>
		<rect y="382.398" style="fill:#EBEBEB;" width="500" height="0.25"/>
		<rect x="52.459" y="391.922" style="fill:#EBEBEB;" width="33.122" height="0.25"/>
		<rect x="171.14" y="392.047" style="fill:#EBEBEB;" width="53.86" height="0.25"/>
		<rect x="105.774" y="397.083" style="fill:#EBEBEB;" width="19.192" height="0.25"/>
		<rect x="426.766" y="396.958" style="fill:#EBEBEB;" width="19.235" height="0.25"/>
		<rect x="387.57" y="396.958" style="fill:#EBEBEB;" width="30.292" height="0.25"/>
		<rect x="328.333" y="395.306" style="fill:#EBEBEB;" width="42.556" height="0.25"/>
		<path style="fill:#EBEBEB;" d="M237.014,337.8H43.915c-3.147,0-5.708-2.561-5.708-5.708V60.66c0-3.147,2.561-5.708,5.708-5.708
			h193.099c3.146,0,5.707,2.561,5.707,5.708v271.432C242.721,335.239,240.16,337.8,237.014,337.8z M43.915,55.203
			c-3.01,0-5.458,2.448-5.458,5.458v271.432c0,3.01,2.448,5.458,5.458,5.458h193.099c3.009,0,5.457-2.448,5.457-5.458V60.66
			c0-3.009-2.448-5.458-5.457-5.458H43.915z"/>
		<path style="fill:#EBEBEB;" d="M453.31,337.8H260.212c-3.147,0-5.707-2.561-5.707-5.708V60.66c0-3.147,2.561-5.708,5.707-5.708
			H453.31c3.148,0,5.708,2.561,5.708,5.708v271.432C459.019,335.239,456.458,337.8,453.31,337.8z M260.212,55.203
			c-3.009,0-5.457,2.448-5.457,5.458v271.432c0,3.01,2.448,5.458,5.457,5.458H453.31c3.01,0,5.458-2.448,5.458-5.458V60.66
			c0-3.009-2.448-5.458-5.458-5.458H260.212z"/>
	</g>
	<g>
		<g>
			<g>
				<rect x="131.021" y="184.221" style="fill:#E6E6E6;" width="17.206" height="53.574"/>
				<polygon style="fill:#F0F0F0;" points="194.876,237.794 137.773,237.794 129.149,175.09 186.253,175.09 				"/>
				<polygon style="fill:#F5F5F5;" points="201.061,237.794 142.077,237.794 133.454,175.09 192.437,175.09 				"/>
				<polygon style="fill:#FFFFFF;" points="146.339,232.853 139.075,180.032 188.176,180.032 195.44,232.853 				"/>
			</g>
			<g>
				<rect x="106.506" y="198.652" style="fill:#E6E6E6;" width="12.571" height="39.143"/>
				<polygon style="fill:#F0F0F0;" points="153.16,237.794 111.439,237.794 105.138,191.981 146.859,191.981 				"/>
				<polygon style="fill:#F5F5F5;" points="157.679,237.794 114.584,237.794 108.283,191.981 151.378,191.981 				"/>
				<polygon style="fill:#FFFFFF;" points="117.698,234.184 112.39,195.591 148.264,195.591 153.572,234.184 				"/>
			</g>
			<g>
				<g>
					<rect x="172.536" y="237.794" style="fill:#E6E6E6;" width="54.909" height="144.604"/>
					<polygon style="fill:#F0F0F0;" points="221.921,382.398 227.444,382.398 227.444,372.999 216.13,372.999 					"/>
					<rect x="76.315" y="237.794" style="fill:#E6E6E6;" width="54.909" height="144.604"/>
					<rect x="126.404" y="237.794" style="fill:#F0F0F0;" width="101.04" height="141.275"/>
					<polygon style="fill:#F0F0F0;" points="131.927,382.398 126.404,382.398 126.404,372.999 137.718,372.999 					"/>
					<path style="fill:#FFFFFF;" d="M220.248,305.993H133.6c-1.608,0-2.912-1.304-2.912-2.912V245.2
						c0-1.608,1.304-2.912,2.912-2.912h86.648c1.608,0,2.912,1.304,2.912,2.912v57.881
						C223.16,304.689,221.856,305.993,220.248,305.993z"/>
					<path style="fill:#F0F0F0;" d="M186.938,251.298h-20.026c-8.699,0-17.014-3.577-22.997-9.891l0,0h66.02l0,0
						C203.952,247.721,195.636,251.298,186.938,251.298z"/>
					<path style="fill:#FFFFFF;" d="M220.248,374.383H133.6c-1.608,0-2.912-1.304-2.912-2.912V313.59
						c0-1.608,1.304-2.912,2.912-2.912h86.648c1.608,0,2.912,1.304,2.912,2.912v57.881
						C223.16,373.08,221.856,374.383,220.248,374.383z"/>
					<path style="fill:#F0F0F0;" d="M186.938,319.688h-20.026c-8.699,0-17.014-3.577-22.997-9.891l0,0h66.02l0,0
						C203.952,316.112,195.636,319.688,186.938,319.688z"/>
				</g>
			</g>
		</g>
		<g>
			<path style="fill:#EBEBEB;" d="M124.815,158.276c-23.232,0-42.133-18.9-42.133-42.133c0-23.232,18.9-42.134,42.133-42.134
				c23.232,0,42.134,18.901,42.134,42.134C166.949,139.376,148.048,158.276,124.815,158.276z M124.815,75.01
				c-22.681,0-41.133,18.452-41.133,41.134c0,22.681,18.452,41.133,41.133,41.133c22.682,0,41.134-18.452,41.134-41.133
				C165.949,93.462,147.497,75.01,124.815,75.01z"/>
			<path style="fill:#EBEBEB;" d="M122.689,158.276c-23.232,0-42.133-18.9-42.133-42.133c0-23.232,18.9-42.134,42.133-42.134v1
				c-22.681,0-41.133,18.452-41.133,41.134c0,22.681,18.452,41.133,41.133,41.133V158.276z"/>
			<path style="fill:#E0E0E0;" d="M124.815,117.619c-0.322,0-0.643-0.105-0.906-0.312c-0.453-0.354-0.66-0.938-0.531-1.497
				l7.417-32.045c0.184-0.794,0.973-1.285,1.77-1.104c0.793,0.184,1.288,0.977,1.105,1.771l-6.7,28.946l14.792-7.604
				c0.724-0.369,1.614-0.088,1.987,0.638c0.372,0.725,0.087,1.614-0.638,1.987l-17.621,9.057
				C125.277,117.565,125.046,117.619,124.815,117.619z"/>
		</g>
		<g>
			<rect x="292.764" y="87.826" style="fill:#F0F0F0;" width="146.487" height="143.396"/>
			<rect x="295.202" y="87.826" style="fill:#F5F5F5;" width="149.266" height="143.396"/>
			
				<rect x="305.441" y="92.195" transform="matrix(-1.836970e-16 1 -1 -1.836970e-16 529.3586 -210.3112)" style="fill:#FFFFFF;" width="128.787" height="134.657"/>
			<path style="fill:#F5F5F5;" d="M369.835,200.067c-22.355,0-40.544-18.188-40.544-40.544c0-22.355,18.189-40.544,40.544-40.544
				c22.355,0,40.544,18.188,40.544,40.544C410.379,181.879,392.19,200.067,369.835,200.067z M369.835,119.737
				c-21.938,0-39.786,17.848-39.786,39.786c0,21.938,17.848,39.786,39.786,39.786c21.938,0,39.786-17.848,39.786-39.786
				C409.621,137.585,391.773,119.737,369.835,119.737z"/>
			
				<rect x="372.306" y="159.06" transform="matrix(-1.836970e-16 1 -1 -1.836970e-16 596.2235 -277.1761)" style="fill:#F0F0F0;" width="128.787" height="0.928"/>
		</g>
	</g>
</g>
<g id="Background_Simple" style="display:none;">
	<g style="display:inline;">
		<path style="fill:#407BFF;" d="M142.27,243.076c54.451-76.141,47.999-197.043,162.613-142.164
			c58.322,27.925,107.313,2.369,123.404,50.209c11.047,32.844-11.939,102.269-31.925,129.238
			c-30.107,40.626-71.308,38.061-117.253,38.845c-51.996,0.888-78.18,31.071-124.822,41.55
			c-34.035,7.647-88.764-17.976-88.466-59.351C66.186,250.71,119.068,275.52,142.27,243.076z"/>
		<path style="opacity:0.9;fill:#FFFFFF;" d="M142.27,243.076c54.451-76.141,47.999-197.043,162.613-142.164
			c58.322,27.925,107.313,2.369,123.404,50.209c11.047,32.844-11.939,102.269-31.925,129.238
			c-30.107,40.626-71.308,38.061-117.253,38.845c-51.996,0.888-78.18,31.071-124.822,41.55
			c-34.035,7.647-88.764-17.976-88.466-59.351C66.186,250.71,119.068,275.52,142.27,243.076z"/>
	</g>
</g>
<g id="Shadow_1_">
	<ellipse id="_x3C_Path_x3E__271_" style="fill:#F5F5F5;" cx="250" cy="416.238" rx="193.889" ry="11.323"/>
</g>
<g id="Features_overview">
	<g>
		<g>
			<g>
				<g>
					<path style="fill:#407BFF;" d="M382.934,289.851c-1.632-0.37-3.435-0.73-5.359-1.071l0.174-0.984
						c1.941,0.343,3.76,0.707,5.406,1.081L382.934,289.851z"/>
					<path style="fill:#407BFF;" d="M373.804,288.161c-4.121-0.629-8.71-1.18-13.64-1.638l0.092-0.996
						c4.949,0.46,9.559,1.014,13.698,1.646L373.804,288.161z"/>
					<ellipse style="fill:#407BFF;" cx="322.733" cy="298.365" rx="71.691" ry="10.935"/>
				</g>
				<g>
					<path style="fill:#263238;" d="M322.733,309.3c-39.594,0-71.691-4.896-71.691-10.935v64.579
						c0,6.04,32.097,10.935,71.691,10.935c39.594,0,71.691-4.896,71.691-10.935v-64.579
						C394.425,304.404,362.328,309.3,322.733,309.3z"/>
					<path style="opacity:0.75;fill:#FFFFFF;" d="M322.733,309.3c-39.594,0-71.691-4.896-71.691-10.935v64.579
						c0,6.04,32.097,10.935,71.691,10.935c39.594,0,71.691-4.896,71.691-10.935v-64.579
						C394.425,304.404,362.328,309.3,322.733,309.3z"/>
				</g>
				<path style="fill:#FFFFFF;" d="M322.733,343.768c-35.486,0-72.191-4.277-72.191-11.436h1c0,5.04,28.606,10.436,71.191,10.436
					s71.191-5.396,71.191-10.436h1C394.925,339.49,358.22,343.768,322.733,343.768z"/>
			</g>
			<g>
				<g>
					<ellipse style="fill:#407BFF;" cx="322.733" cy="220.87" rx="57.353" ry="8.748"/>
					<ellipse style="opacity:0.2;fill:#FFFFFF;" cx="322.733" cy="220.87" rx="57.353" ry="8.748"/>
				</g>
				<g>
					<path style="fill:#263238;" d="M322.733,229.618c-31.675,0-57.353-3.917-57.353-8.748v51.663
						c0,4.832,25.678,8.748,57.353,8.748c31.675,0,57.353-3.917,57.353-8.748V220.87
						C380.087,225.701,354.409,229.618,322.733,229.618z"/>
					<path style="opacity:0.8;fill:#FFFFFF;" d="M322.733,229.618c-31.675,0-57.353-3.917-57.353-8.748v51.663
						c0,4.832,25.678,8.748,57.353,8.748c31.675,0,57.353-3.917,57.353-8.748V220.87
						C380.087,225.701,354.409,229.618,322.733,229.618z"/>
				</g>
				<path style="fill:#FFFFFF;" d="M322.733,255.95c-28.046,0-57.853-3.241-57.853-9.249h1c0,3.901,23.349,8.249,56.853,8.249
					s56.854-4.348,56.854-8.249h1C380.587,252.709,350.779,255.95,322.733,255.95z"/>
			</g>
			<g>
				<g>
					<ellipse style="fill:#407BFF;" cx="322.733" cy="157.644" rx="45.882" ry="6.999"/>
					<ellipse style="opacity:0.4;fill:#FFFFFF;" cx="322.733" cy="157.644" rx="45.882" ry="6.999"/>
				</g>
				<g>
					<path style="fill:#263238;" d="M322.733,164.643c-25.34,0-45.882-3.133-45.882-6.999v41.331c0,3.865,20.542,6.999,45.882,6.999
						c25.34,0,45.883-3.133,45.883-6.999v-41.331C368.616,161.509,348.074,164.643,322.733,164.643z"/>
					<path style="opacity:0.85;fill:#FFFFFF;" d="M322.733,164.643c-25.34,0-45.882-3.133-45.882-6.999v41.331
						c0,3.865,20.542,6.999,45.882,6.999c25.34,0,45.883-3.133,45.883-6.999v-41.331
						C368.616,161.509,348.074,164.643,322.733,164.643z"/>
				</g>
				<path style="fill:#FFFFFF;" d="M322.733,185.809c-22.485,0-46.383-2.628-46.383-7.499h1c0,3.074,18.638,6.499,45.383,6.499
					s45.383-3.425,45.383-6.499h1C369.116,183.181,345.219,185.809,322.733,185.809z"/>
			</g>
			<g>
				<g>
					<ellipse style="fill:#407BFF;" cx="322.733" cy="105.834" rx="36.706" ry="5.599"/>
					<ellipse style="opacity:0.6;fill:#FFFFFF;" cx="322.733" cy="105.834" rx="36.706" ry="5.599"/>
				</g>
				<g>
					<path style="fill:#263238;" d="M322.733,111.433c-20.272,0-36.706-2.507-36.706-5.599v33.065
						c0,3.092,16.434,5.599,36.706,5.599c20.272,0,36.706-2.507,36.706-5.599v-33.065
						C359.44,108.926,343.006,111.433,322.733,111.433z"/>
					<path style="opacity:0.9;fill:#FFFFFF;" d="M322.733,111.433c-20.272,0-36.706-2.507-36.706-5.599v33.065
						c0,3.092,16.434,5.599,36.706,5.599c20.272,0,36.706-2.507,36.706-5.599v-33.065
						C359.44,108.926,343.006,111.433,322.733,111.433z"/>
				</g>
				<path style="fill:#FFFFFF;" d="M322.733,128.465c-18.036,0-37.206-2.138-37.206-6.099h1c0,2.129,13.774,5.099,36.206,5.099
					s36.206-2.97,36.206-5.099h1C359.94,126.327,340.77,128.465,322.733,128.465z"/>
			</g>
		</g>
		<g>
			<path style="fill:#263238;" d="M253.468,291.279c0,1.34-1.086,2.426-2.426,2.426c-1.34,0-2.426-1.086-2.426-2.426
				s1.086-2.426,2.426-2.426C252.382,288.853,253.468,289.94,253.468,291.279z"/>
			<path style="fill:#263238;" d="M251.042,291.779c-0.128,0-0.256-0.049-0.354-0.146l-15.968-15.968H192.76
				c-0.276,0-0.5-0.224-0.5-0.5c0-0.276,0.224-0.5,0.5-0.5h42.168c0.133,0,0.26,0.053,0.354,0.146l16.114,16.114
				c0.195,0.195,0.195,0.512,0,0.707C251.298,291.73,251.17,291.779,251.042,291.779z"/>
			<g>
				<path style="fill:#407BFF;" d="M206.426,268.681h-11.889c-0.978,0-1.778,0.8-1.778,1.778l0,0c0,0.978,0.8,1.778,1.778,1.778
					h11.889c0.978,0,1.778-0.8,1.778-1.778l0,0C208.204,269.482,207.404,268.681,206.426,268.681z"/>
				<path style="fill:#407BFF;" d="M212.426,263.012h-17.889c-0.978,0-1.778,0.8-1.778,1.778l0,0c0,0.978,0.8,1.778,1.778,1.778
					h17.889c0.978,0,1.778-0.8,1.778-1.778l0,0C214.204,263.812,213.404,263.012,212.426,263.012z"/>
			</g>
		</g>
		<g>
			<circle style="fill:#263238;" cx="276.851" cy="150.558" r="2.426"/>
			<path style="fill:#263238;" d="M276.851,151.058c-0.128,0-0.256-0.049-0.353-0.146l-15.968-15.968h-41.961
				c-0.276,0-0.5-0.224-0.5-0.5c0-0.276,0.224-0.5,0.5-0.5h42.168c0.133,0,0.26,0.053,0.354,0.146l16.114,16.114
				c0.195,0.195,0.195,0.512,0,0.707C277.106,151.009,276.978,151.058,276.851,151.058z"/>
			<g>
				<path style="fill:#407BFF;" d="M232.235,128.053h-11.889c-0.978,0-1.778,0.8-1.778,1.778v0c0,0.978,0.8,1.778,1.778,1.778
					h11.889c0.978,0,1.778-0.8,1.778-1.778v0C234.013,128.853,233.213,128.053,232.235,128.053z"/>
				<path style="fill:#407BFF;" d="M238.235,122.384h-17.889c-0.978,0-1.778,0.8-1.778,1.778l0,0c0,0.978,0.8,1.778,1.778,1.778
					h17.889c0.978,0,1.778-0.8,1.778-1.778l0,0C240.013,123.184,239.213,122.384,238.235,122.384z"/>
			</g>
		</g>
		<g>
			<circle style="fill:#263238;" cx="380.087" cy="213.783" r="2.426"/>
			<path style="fill:#263238;" d="M380.087,214.283c-0.128,0-0.256-0.049-0.354-0.146c-0.195-0.195-0.195-0.512,0-0.707
				l16.114-16.114c0.094-0.094,0.221-0.146,0.354-0.146h42.168c0.276,0,0.5,0.224,0.5,0.5c0,0.276-0.224,0.5-0.5,0.5h-41.961
				l-15.968,15.968C380.343,214.234,380.215,214.283,380.087,214.283z"/>
			<g>
				<path style="fill:#407BFF;" d="M424.703,191.279h11.889c0.978,0,1.778,0.8,1.778,1.778l0,0c0,0.978-0.8,1.778-1.778,1.778
					h-11.889c-0.978,0-1.778-0.8-1.778-1.778l0,0C422.925,192.079,423.725,191.279,424.703,191.279z"/>
				<path style="fill:#407BFF;" d="M418.703,185.609h17.889c0.978,0,1.778,0.8,1.778,1.778l0,0c0,0.978-0.8,1.778-1.778,1.778
					h-17.889c-0.978,0-1.778-0.8-1.778-1.778l0,0C416.925,186.409,417.725,185.609,418.703,185.609z"/>
			</g>
		</g>
		<g>
			<circle style="fill:#263238;" cx="359.44" cy="98.747" r="2.426"/>
			<path style="fill:#263238;" d="M359.44,99.247c-0.128,0-0.256-0.049-0.354-0.146c-0.195-0.195-0.195-0.512,0-0.707L375.2,82.279
				c0.094-0.094,0.221-0.146,0.354-0.146h42.169c0.276,0,0.5,0.224,0.5,0.5c0,0.276-0.224,0.5-0.5,0.5h-41.962l-15.968,15.968
				C359.695,99.198,359.567,99.247,359.44,99.247z"/>
			<g>
				<path style="fill:#407BFF;" d="M404.056,76.243h11.889c0.978,0,1.778,0.8,1.778,1.778l0,0c0,0.978-0.8,1.778-1.778,1.778
					h-11.889c-0.978,0-1.778-0.8-1.778-1.778l0,0C402.278,77.043,403.078,76.243,404.056,76.243z"/>
				<path style="fill:#407BFF;" d="M398.056,70.574h17.889c0.978,0,1.778,0.8,1.778,1.778l0,0c0,0.978-0.8,1.778-1.778,1.778
					h-17.889c-0.978,0-1.778-0.8-1.778-1.778l0,0C396.278,71.374,397.078,70.574,398.056,70.574z"/>
			</g>
		</g>
	</g>
</g>
<g id="Character_1_">
	<g>
		<path style="fill:#B55B52;" d="M139.855,147.583c1.179,5.103,2.505,14.454-0.946,17.859c0,0,3.852,6.753,12.661,10.387
			c6.676-4.277,3.199-10.386,3.199-10.386c-5.738-1.359-5.739-5.581-4.887-9.546L139.855,147.583z"/>
		<path style="fill:#407BFF;" d="M138.743,172.853c-3.529-4.769-3.345-12.186-3.345-12.186s14.051-1.992,21.269,2.921
			c2.119,3.168,5.461,8.892,5.461,8.892s-1.114,2.922-5.448,3.93C152.347,177.417,138.743,172.853,138.743,172.853z"/>
		<path style="fill:#B55B52;" d="M134.74,179.389c-0.166,2.189-0.346,4.571-0.406,6.856c-0.108,2.302-0.14,4.599-0.058,6.851
			c0.087,2.244,0.233,4.467,0.607,6.499c0.09,0.506,0.194,0.995,0.309,1.469l0.188,0.683l0.105,0.32l0.051,0.161l0.025,0.079
			l-0.031-0.073c-0.234-0.406-0.384-0.411-0.26-0.318c0.106,0.095,0.407,0.257,0.772,0.403c1.549,0.611,3.839,0.935,6.051,1.139
			c2.25,0.214,4.579,0.27,6.924,0.323c2.347,0.04,4.714-0.001,7.087-0.071c2.37-0.033,4.771-0.156,7.12-0.249l0.632,4.309
			c-4.815,1.113-9.615,1.887-14.55,2.394c-2.466,0.267-4.956,0.409-7.518,0.419c-1.282,0.008-2.583-0.051-3.928-0.176
			c-1.349-0.136-2.732-0.328-4.271-0.785c-0.774-0.238-1.592-0.546-2.504-1.097c-0.884-0.55-1.975-1.385-2.721-2.892l-0.132-0.275
			l-0.056-0.132l-0.11-0.26l-0.218-0.523l-0.378-1.031c-0.227-0.681-0.427-1.356-0.602-2.025c-0.661-2.674-1.01-5.258-1.199-7.818
			c-0.177-2.557-0.223-5.08-0.189-7.591c0.09-2.529,0.2-4.956,0.522-7.558L134.74,179.389z"/>
		<path style="fill:#B55B52;" d="M168.007,198.122l-6.538,6.373l-0.415,3.509c2.149,1.207,4.949,0.244,6.526-0.498l0,0.001
			l5.99-2.067c1.125-0.388,1.852-1.458,1.808-2.661l-0.082-2.247c-0.06-1.65-1.524-2.943-3.163-2.791L168.007,198.122z"/>
		<path style="fill:#263238;" d="M132.002,166.349c-3.439,1.025-6.87,2.542-9.963,17.845c4.596,3.696,13.561,5.353,13.561,5.353
			l2.147-4.877C139.533,175.609,132.002,166.349,132.002,166.349"/>
		<path style="fill:#263238;" d="M170.698,177.427c0.005,7.287-0.783,19.991-3.607,42.124h-34.929
			c0.079-12.676,0.391-21.129-5.084-43.495c-1.216-4.97,2.122-9.727,7.155-10.253c1.478-0.154,3.056-0.283,4.676-0.362
			c5.868-0.283,10.677-0.471,15.861,0.001c2.021,0.184,4.125,0.452,6.086,0.738C166.433,166.993,170.693,171.821,170.698,177.427z"
			/>
		<path style="fill:#B55B52;" d="M169.879,173.537c0.002-0.018-0.002-0.075,0-0.059l0.008,0.046l0.018,0.109l0.053,0.287
			l0.147,0.653c0.106,0.449,0.245,0.918,0.415,1.382c0.347,0.926,0.738,1.867,1.238,2.779c0.975,1.831,2.285,3.547,3.799,5.147
			c0.782,0.778,1.57,1.568,2.447,2.288l0.633,0.544c0.164,0.128,0.309,0.225,0.382,0.272c0.062,0.057,0.083,0.013-0.36-0.062
			c-0.244-0.031-0.69-0.082-1.357,0.132c-0.67,0.197-1.372,0.796-1.639,1.242c-0.296,0.456-0.35,0.74-0.385,0.881
			c-0.031,0.145-0.023,0.214-0.022,0.208c0.011,0.013,0.019-0.143,0.005-0.32c-0.023-0.369-0.109-0.883-0.221-1.405
			c-0.228-1.059-0.561-2.209-0.925-3.357c-1.489-4.63-3.391-9.348-5.284-14.033c-1.938-4.675-3.931-9.373-5.924-14.038l3.865-2.009
			c2.684,4.416,5.204,8.884,7.596,13.46c2.406,4.578,4.708,9.184,6.674,14.17c0.484,1.26,0.948,2.539,1.348,3.956
			c0.198,0.716,0.384,1.453,0.513,2.352c0.061,0.457,0.116,0.94,0.096,1.591c-0.009,0.314-0.044,0.701-0.142,1.157
			c-0.104,0.452-0.266,1.042-0.741,1.764c-0.442,0.714-1.409,1.522-2.384,1.813c-0.972,0.312-1.745,0.259-2.304,0.181
			c-1.073-0.187-1.646-0.489-2.144-0.735c-0.489-0.256-0.882-0.506-1.237-0.749l-0.889-0.618c-1.184-0.79-2.309-1.696-3.399-2.654
			c-2.181-1.924-4.098-4.238-5.64-6.852c-0.792-1.293-1.442-2.696-1.957-4.171c-0.263-0.736-0.488-1.494-0.674-2.287
			c-0.099-0.389-0.176-0.803-0.241-1.222c-0.036-0.205-0.06-0.441-0.088-0.66l-0.036-0.366l-0.031-0.491L169.879,173.537z"/>
		<path style="fill:#263238;" d="M157.58,174.046c-0.037-3.814,3.275-7.866,3.275-7.866c5.844,1.214,11.301,3.536,15.014,15.558
			c-2.286,6.022-10.397,10.616-10.397,10.616l-5.47-9.957C160.001,182.396,157.617,177.86,157.58,174.046z"/>
		<path style="fill:#B55B52;" d="M165.742,152.027l-2.619-3.1l-6.508-1.985l-1.182,6.685l5.848,3.17c0,0,3.834,3.567,6.967,2.541
			C168.377,156.702,167.479,154.083,165.742,152.027z"/>
		<path style="fill:#263238;" d="M157.65,136.945c0.145,0.683,0.622,1.173,1.066,1.094s0.686-0.697,0.541-1.38
			c-0.145-0.683-0.622-1.173-1.066-1.094S157.505,136.262,157.65,136.945z"/>
		<path style="fill:#263238;" d="M158.003,135.638l1.53-0.764C159.533,134.875,158.968,136.305,158.003,135.638z"/>
		<path style="fill:#263238;" d="M158.01,132.309c0.094-0.035,0.174-0.105,0.218-0.203c0.092-0.202,0-0.446-0.205-0.545
			c-2.057-0.994-3.652-0.052-3.719-0.01c-0.189,0.115-0.244,0.365-0.122,0.558c0.121,0.193,0.373,0.257,0.563,0.143
			c0.062-0.038,1.31-0.75,2.945,0.041C157.796,132.343,157.911,132.345,158.01,132.309z"/>
		<path style="fill:#A02724;" d="M158.003,138.831c0,0,1.776,2.735,3.345,3.928c-0.718,1.001-2.323,0.888-2.323,0.888
			L158.003,138.831z"/>
		<path style="fill:#263238;" d="M157.47,140.355c-0.75,0-1.347-0.201-1.782-0.604c-0.959-0.886-0.736-2.391-0.727-2.454
			c0.017-0.11,0.102-0.196,0.212-0.216l7.075-1.252c0.136-0.026,0.271,0.066,0.3,0.204c0.006,0.031,0.583,3.113-3.72,4.143
			C158.331,140.296,157.878,140.355,157.47,140.355z M155.458,137.56c-0.021,0.382-0.001,1.274,0.585,1.813
			c0.536,0.493,1.433,0.595,2.664,0.299c3.137-0.75,3.379-2.599,3.355-3.28L155.458,137.56z"/>
		<path style="fill:#B55B52;" d="M134.145,138.222c2.291,8.298,3.086,11.852,8.21,15.408c7.707,5.348,17.312,1.075,17.525-7.653
			c0.192-7.856-3.588-20.105-12.456-21.989C138.685,122.131,131.853,129.924,134.145,138.222z"/>
		<path style="fill:#263238;" d="M132.808,128.466c-1.792-6.372,10.58-16.071,16.303-14.661c5.723,1.41,5.781,8.152,4.741,9.659
			c1.85,0.435,4.709,6.638-1.981,15.209c0.941,5.583,14.002,12.041,4.321,19.723c-9.682,7.682-37.838,5.183-33.616-2.806
			C128.356,144.65,123.153,128.973,132.808,128.466z"/>
		<path style="fill:#263238;" d="M151.467,138.61c-0.125,0-0.234-0.089-0.257-0.216c-0.024-0.142,0.071-0.276,0.213-0.301
			l10.675-1.836c-0.067-0.077-0.086-0.189-0.038-0.287c0.063-0.129,0.221-0.183,0.349-0.118l0.605,0.298
			c0.101,0.05,0.158,0.159,0.143,0.27c-0.017,0.111-0.103,0.2-0.214,0.22l-11.432,1.967
			C151.496,138.609,151.481,138.61,151.467,138.61z"/>
		<path style="fill:#B55B52;" d="M167.09,219.551c0,0-0.685,64.759-0.33,90.985c0.369,27.279,8.32,90.985,8.32,90.985h-6.885
			c0,0-18.819-52.946-16.9-90.985c-5.94-29.21-11.423-90.985-11.423-90.985H167.09z"/>
		<path style="fill:#B55B52;" d="M157.962,219.551c0,0-14.029,67.817-19.848,93.178c-6.111,26.635-7.69,89.146-7.675,91.121
			l-5.797-2.328c0,0-10.293-69.529-1.696-93.178c-0.998-29.621,9.92-88.793,9.92-88.793H157.962z"/>
		<path style="fill:#263238;" d="M128.509,398.826c-5.105-0.899-5.008,1.734-5.343,4.569c-0.193,1.63-0.034,3.458,0.841,4.999
			c1.799,3.165,0.258,7.845,5.987,7.845s6.25-1.325,4.704-4.156c-1.546-2.831-2.329-5.821-3.023-9.093
			C131.328,401.348,130.778,399.225,128.509,398.826z"/>
		<path style="fill:#263238;" d="M123.5,404.872c-0.004,3.433-0.057,11.366-0.057,11.366l0.905-0.026c0,0,0.778-8.451,1.276-10.727
			L123.5,404.872z"/>
		<path style="fill:#B55B52;" d="M148.858,140.402c0.89,1.555,2.408,2.581,3.825,2.98c2.131,0.599,3.135-1.272,2.492-3.256
			c-0.579-1.786-2.386-4.25-4.501-3.977C148.591,136.417,147.84,138.624,148.858,140.402z"/>
		<path style="fill:#407BFF;" d="M167.09,219.551l1.969,85.958c0,0-3.004,2.315-14.029,0.986c-11.025-1.33-13.744-5.81-21.702-7.169
			s-13.398-0.611-13.398-0.611c-2.527-50.246-1.075-68.66,12.232-79.164H167.09z"/>
		<path style="opacity:0.2;" d="M133.842,237.344c0,0,10.594,9.909,21.188,13.394C148.12,250.737,135.659,244.671,133.842,237.344z"
			/>
		<path style="fill:#B55B52;" d="M174.371,395.688c2.049,8.767,10.309,18.048,10.309,18.048l-12.113-3.102l-5.095-7.584l0.998-2.007
			L174.371,395.688z"/>
		<path style="fill:#263238;" d="M166.817,399.952c-0.401,0.896-0.518,1.895-0.462,2.879c0.208,3.626,0.993,13.239,0.993,13.239
			l0.829,0.006c0,0-0.237-6.472,0.079-8.856c0.316-2.385,1.498,1.832,3.154,4.217c1.657,2.386,4.818,4.557,10.218,4.727
			c6.322,0.198,8.871-0.068,6.974-1.651c-1.897-1.583-6.129-2.615-6.129-2.615s-4.835-1.792-7.946-7.151
			c-2.017-3.475-4.995-5.062-6.607-5.88C167.404,398.956,167.061,399.406,166.817,399.952z"/>
	</g>
</g>
</svg>
