<?xml version="1.0" encoding="utf-8"?>
<!-- Generator: Adobe Illustrator 27.5.0, SVG Export Plug-In . SVG Version: 6.00 Build 0)  -->
<svg version="1.1" xmlns="http://www.w3.org/2000/svg" xmlns:xlink="http://www.w3.org/1999/xlink" x="0px" y="0px"
	 viewBox="0 0 1800 1122" style="enable-background:new 0 0 1800 1122;" xml:space="preserve">
<g id="BG">
	<rect style="fill:#FFFFFF;" width="1800" height="1122"/>
</g>
<g id="Objects">
	<g>
		<path style="fill:#E5E6E7;" d="M657.758,567.193H533.719v-75.254h124.039V567.193z M540.228,560.683h111.02v-62.234h-111.02
			V560.683z"/>
	</g>
	<g>
		<path style="fill:#DCDCDB;" d="M428.699,824.475c-36.612,0-66.399-29.786-66.399-66.399c0-36.612,29.786-66.398,66.399-66.398
			c36.612,0,66.398,29.786,66.398,66.398C495.098,794.688,465.311,824.475,428.699,824.475z M428.699,698.187
			c-33.023,0-59.889,26.866-59.889,59.889c0,33.023,26.866,59.889,59.889,59.889c33.023,0,59.889-26.866,59.889-59.889
			C488.588,725.053,461.722,698.187,428.699,698.187z"/>
	</g>
	<g>
		<path style="fill:#DCDCDB;" d="M272.022,905.916c-23.917,0-43.374-19.457-43.374-43.374c0-23.917,19.458-43.374,43.374-43.374
			c23.916,0,43.374,19.457,43.374,43.374C315.395,886.458,295.938,905.916,272.022,905.916z M272.022,825.677
			c-20.327,0-36.864,16.537-36.864,36.864c0,20.327,16.537,36.865,36.864,36.865c20.327,0,36.864-16.537,36.864-36.865
			C308.886,842.214,292.349,825.677,272.022,825.677z"/>
	</g>
	<g>
		<path style="fill:#DCDCDB;" d="M1654.22,610.816c-25.584,0-49.636-9.963-67.727-28.053c-18.091-18.09-28.053-42.143-28.053-67.727
			c0-25.584,9.963-49.636,28.053-67.726c18.09-18.09,42.143-28.053,67.727-28.053c25.583,0,49.636,9.963,67.726,28.053
			c18.091,18.09,28.053,42.143,28.053,67.726c0,25.584-9.963,49.636-28.053,67.727
			C1703.856,600.853,1679.804,610.816,1654.22,610.816z M1654.22,425.766c-23.845,0-46.263,9.286-63.124,26.147
			c-16.861,16.861-26.146,39.278-26.146,63.123c0,23.845,9.286,46.263,26.146,63.124c16.861,16.861,39.279,26.146,63.124,26.146
			s46.263-9.286,63.123-26.146c16.861-16.861,26.147-39.279,26.147-63.124c0-23.845-9.286-46.262-26.147-63.123
			C1700.483,435.052,1678.065,425.766,1654.22,425.766z"/>
	</g>
	<g>
		<path style="fill:#DCDCDB;" d="M912.84,1065.691c-38.624,0-70.048-31.423-70.048-70.048c0-38.624,31.423-70.048,70.048-70.048
			c38.624,0,70.047,31.423,70.047,70.048C982.887,1034.267,951.464,1065.691,912.84,1065.691z M912.84,932.105
			c-35.035,0-63.538,28.503-63.538,63.538c0,35.035,28.503,63.538,63.538,63.538c35.034,0,63.537-28.503,63.537-63.538
			C976.377,960.608,947.874,932.105,912.84,932.105z"/>
	</g>
	<g>
		<path style="fill:#DCDCDB;" d="M850.695,1057.645c-19.188,0-34.798-15.61-34.798-34.798c0-19.188,15.61-34.798,34.798-34.798
			c19.188,0,34.798,15.61,34.798,34.798C885.493,1042.034,869.882,1057.645,850.695,1057.645z M850.695,994.558
			c-15.598,0-28.288,12.69-28.288,28.288c0,15.598,12.69,28.288,28.288,28.288c15.598,0,28.288-12.69,28.288-28.288
			C878.983,1007.248,866.293,994.558,850.695,994.558z"/>
	</g>
	<g>
		<path style="fill:#DCDCDB;" d="M1496.428,984.278h-124.039V771.663h124.039V984.278z M1378.899,977.769h111.019V778.172h-111.019
			V977.769z"/>
	</g>
	<g>
		<path style="fill:#595A5C;" d="M486.277,1024.53h-3.616v-3.18h3.616V1024.53z M486.277,1017.733h-3.616v-7.233h3.616V1017.733z
			 M486.277,1006.883h-3.616v-7.233h3.616V1006.883z M486.277,996.034h-3.616v-7.233h3.616V996.034z M486.277,985.185h-3.616v-7.233
			h3.616V985.185z M486.277,974.335h-3.616v-7.233h3.616V974.335z M486.277,963.485h-3.616v-7.233h3.616V963.485z M486.277,952.636
			h-3.616v-7.233h3.616V952.636z M486.277,941.787h-3.616v-7.233h3.616V941.787z M486.277,930.937h-3.616v-7.233h3.616V930.937z
			 M486.277,920.088h-3.616v-7.233h3.616V920.088z M300.777,919.518l-1.808-3.132l6.264-3.617l1.808,3.132L300.777,919.518z
			 M310.173,914.093l-1.808-3.132l6.264-3.617l1.808,3.132L310.173,914.093z M486.277,909.238h-3.616v-7.233h3.616V909.238z
			 M319.569,908.668l-1.808-3.132l6.264-3.617l1.808,3.132L319.569,908.668z M328.965,903.243l-1.808-3.132l6.264-3.617l1.808,3.132
			L328.965,903.243z M486.277,898.389h-3.616v-7.233h3.616V898.389z M338.36,897.819l-1.808-3.132l6.264-3.617l1.808,3.132
			L338.36,897.819z M347.756,892.394l-1.808-3.132l6.264-3.617l1.808,3.132L347.756,892.394z M486.277,887.539h-3.616v-7.233h3.616
			V887.539z M357.152,886.969l-1.808-3.132l6.264-3.617l1.808,3.132L357.152,886.969z M366.548,881.544l-1.808-3.132l6.264-3.616
			l1.808,3.132L366.548,881.544z M486.277,876.69h-3.616v-7.233h3.616V876.69z M375.944,876.12l-1.808-3.132l6.264-3.617
			l1.808,3.132L375.944,876.12z M385.34,870.695l-1.808-3.132l6.264-3.617l1.808,3.132L385.34,870.695z M486.277,865.84h-3.616
			v-7.233h3.616V865.84z M394.736,865.27l-1.808-3.132l6.264-3.617l1.808,3.132L394.736,865.27z M404.132,859.845l-1.808-3.132
			l6.264-3.617l1.808,3.132L404.132,859.845z M486.277,854.991h-3.616v-7.233h3.616V854.991z M413.528,854.42l-1.808-3.132
			l6.264-3.616l1.808,3.132L413.528,854.42z M422.923,848.996l-1.808-3.132l6.264-3.616l1.808,3.132L422.923,848.996z
			 M486.277,844.141h-3.616v-7.233h3.616V844.141z M432.319,843.571l-1.808-3.132l6.264-3.617l1.808,3.132L432.319,843.571z
			 M441.715,838.146l-1.808-3.132l6.264-3.617l1.808,3.132L441.715,838.146z M486.277,833.292h-3.616v-7.233h3.616V833.292z
			 M451.111,832.721l-1.808-3.132l6.264-3.617l1.808,3.132L451.111,832.721z M460.507,827.297l-1.808-3.132l6.264-3.616l1.808,3.132
			L460.507,827.297z M486.277,822.442h-3.616v-7.233h3.616V822.442z M469.903,821.872l-1.808-3.132l6.264-3.617l1.808,3.132
			L469.903,821.872z M479.299,816.447l-1.808-3.132l6.075-3.507l2.712,1.566v0.219h-1.682l0.778,1.347L479.299,816.447z"/>
	</g>
	<g>
		
			<rect x="281.095" y="674.611" transform="matrix(0.5326 -0.8464 0.8464 0.5326 -425.9389 581.5536)" style="fill:#595A5C;" width="64.941" height="3.617"/>
	</g>
	<g>
		
			<rect x="380.96" y="550.478" transform="matrix(0.722 -0.6919 0.6919 0.722 -272.1317 427.3195)" style="fill:#595A5C;" width="29.416" height="3.616"/>
	</g>
	<g>
		<path style="fill:#595A5C;" d="M345.115,547.727l-3.253-1.58l0.349-0.719l3.253,1.579L345.115,547.727z M347.044,543.755
			l-3.253-1.58l3.159-6.506l3.253,1.58L347.044,543.755z M351.783,533.995l-3.253-1.58l3.16-6.507l3.253,1.58L351.783,533.995z
			 M356.522,524.235l-3.253-1.58l3.159-6.507l3.253,1.58L356.522,524.235z M361.261,514.476l-3.253-1.58l3.159-6.506l3.253,1.58
			L361.261,514.476z M366,504.716l-3.254-1.58l3.159-6.507l3.253,1.58L366,504.716z"/>
	</g>
	<g>
		
			<rect x="271.255" y="495.814" transform="matrix(0.7125 -0.7016 0.7016 0.7125 -292.9766 343.7917)" style="fill:#595A5C;" width="3.616" height="67.241"/>
	</g>
	<g>
		
			<rect x="200.765" y="614.133" transform="matrix(1 -0.0033 0.0033 1 -2.0424 0.8141)" style="fill:#595A5C;" width="87.118" height="3.617"/>
	</g>
	<g>
		
			<rect x="429.613" y="573.68" transform="matrix(0.0796 -0.9968 0.9968 0.0796 -207.8497 988.5701)" style="fill:#595A5C;" width="3.616" height="66.327"/>
	</g>
	<g>
		<path style="fill:#595A5C;" d="M85.469,525.719l-3.305-1.468l2.937-6.61l3.305,1.468L85.469,525.719z M89.874,515.805
			l-3.305-1.468l2.937-6.61l3.305,1.468L89.874,515.805z M94.279,505.89l-3.305-1.468l2.937-6.61l3.305,1.468L94.279,505.89z
			 M98.685,495.975l-3.305-1.469l2.937-6.61l3.305,1.469L98.685,495.975z M103.09,486.06l-3.305-1.469l2.937-6.61l3.305,1.469
			L103.09,486.06z M107.495,476.145l-3.305-1.468l2.937-6.61l3.305,1.469L107.495,476.145z M111.9,466.23l-3.305-1.469l2.937-6.61
			l3.305,1.468L111.9,466.23z M116.306,456.315l-3.305-1.468l2.937-6.61l3.305,1.468L116.306,456.315z M120.711,446.4l-3.305-1.468
			l2.937-6.61l3.305,1.468L120.711,446.4z M209.717,446.041l-1.569-0.447l0.559-1.961l-0.147-0.065l0.461-1.038l0.118-0.414
			l0.059,0.017l1.636-3.684l3.305,1.468l-2.274,5.119L209.717,446.041z M204.67,444.603l-6.956-1.982l0.991-3.478l6.956,1.982
			L204.67,444.603z M194.236,441.629l-6.956-1.982l0.991-3.478l6.956,1.982L194.236,441.629z M183.802,438.656l-6.956-1.982
			l0.991-3.478l6.956,1.982L183.802,438.656z M215.607,436.612l-3.305-1.468l2.936-6.61l3.305,1.468L215.607,436.612z
			 M125.116,436.486l-3.305-1.469l2.937-6.61l3.305,1.469L125.116,436.486z M173.368,435.683l-6.956-1.982l0.991-3.478l6.956,1.982
			L173.368,435.683z M162.934,432.71l-6.956-1.982l0.991-3.478l6.956,1.982L162.934,432.71z M152.5,429.736l-6.956-1.982
			l0.991-3.478l6.956,1.982L152.5,429.736z M142.066,426.763l-6.956-1.982l0.991-3.478l6.956,1.982L142.066,426.763z
			 M220.012,426.697l-3.305-1.468l2.936-6.61l3.305,1.468L220.012,426.697z M129.521,426.571l-3.305-1.468l1.972-4.437l2.148-1.005
			l2.286,0.652l-0.991,3.478l-0.776-0.221L129.521,426.571z M224.417,416.781l-3.305-1.468l2.936-6.61l3.305,1.468L224.417,416.781z
			 M228.821,406.866l-3.305-1.468l2.936-6.61l3.305,1.468L228.821,406.866z M233.225,396.951l-3.305-1.468l2.936-6.61l3.305,1.468
			L233.225,396.951z M237.63,387.036l-3.305-1.468l2.936-6.61l3.305,1.468L237.63,387.036z M242.034,377.12l-3.305-1.468l2.936-6.61
			l3.305,1.468L242.034,377.12z M325.401,373.149l-3.039-1.96l3.92-6.079l3.039,1.96L325.401,373.149z M320.108,372.642
			l-5.834-4.275l2.138-2.917l5.834,4.275L320.108,372.642z M246.439,367.205l-3.305-1.468l2.936-6.61l3.305,1.468L246.439,367.205z
			 M311.357,366.229l-5.834-4.275l2.138-2.917l5.834,4.275L311.357,366.229z M331.281,364.031l-3.039-1.96l3.92-6.079l3.039,1.96
			L331.281,364.031z M302.606,359.816l-5.834-4.275l2.138-2.917l5.834,4.275L302.606,359.816z M250.843,357.29l-3.305-1.468
			l2.936-6.61l3.305,1.468L250.843,357.29z M337.161,354.913l-3.039-1.96l3.92-6.078l3.039,1.96L337.161,354.913z M293.855,353.403
			l-5.834-4.275l2.138-2.917l5.834,4.275L293.855,353.403z M255.248,347.375l-3.305-1.468l2.936-6.61l3.305,1.468L255.248,347.375z
			 M285.103,346.99l-5.834-4.275l2.138-2.917l5.834,4.275L285.103,346.99z M343.041,345.795l-3.039-1.96l3.92-6.079l3.039,1.96
			L343.041,345.795z M276.352,340.577l-5.834-4.275l2.138-2.917l5.834,4.275L276.352,340.577z M259.652,337.46l-3.305-1.468
			l2.936-6.61l3.305,1.468L259.652,337.46z M348.921,336.677l-3.039-1.96l3.92-6.079l3.039,1.96L348.921,336.677z M267.601,334.164
			l-5.834-4.275l2.138-2.917l5.834,4.275L267.601,334.164z M354.801,327.559l-3.039-1.96l3.92-6.079l3.039,1.96L354.801,327.559z
			 M360.681,318.441l-3.039-1.96l3.92-6.079l3.039,1.96L360.681,318.441z"/>
	</g>
	<g>
		<path style="fill:#E5E6E7;" d="M892.561,861.234c-40.557,0-79.904-7.944-116.946-23.611
			c-35.777-15.132-67.906-36.795-95.497-64.385c-27.591-27.591-49.253-59.721-64.385-95.497
			c-15.667-37.042-23.611-76.388-23.611-116.945s7.944-79.904,23.611-116.946c15.132-35.777,36.795-67.907,64.385-95.497
			l5.114,5.115c-26.929,26.929-48.07,58.286-62.838,93.2c-15.288,36.146-23.04,74.544-23.04,114.128
			c0,39.584,7.752,77.982,23.04,114.128c14.768,34.914,35.909,66.271,62.838,93.2c26.929,26.929,58.286,48.07,93.2,62.838
			c36.146,15.288,74.544,23.04,114.128,23.04c39.584,0,77.982-7.752,114.128-23.04c34.914-14.768,66.271-35.909,93.2-62.838
			c26.929-26.929,48.07-58.286,62.838-93.2c15.288-36.146,23.04-74.544,23.04-114.128s-7.752-77.982-23.04-114.128
			c-14.768-34.914-35.91-66.272-62.838-93.2c-26.929-26.929-58.286-48.07-93.2-62.838c-36.146-15.288-74.544-23.04-114.128-23.04
			c-39.315,0-77.477,7.654-113.427,22.749l-2.8-6.669c36.841-15.469,75.946-23.312,116.227-23.312
			c40.557,0,79.904,7.944,116.945,23.612c35.776,15.132,67.906,36.794,95.497,64.385c27.591,27.591,49.253,59.72,64.385,95.497
			c15.667,37.042,23.611,76.388,23.611,116.946c0,40.557-7.944,79.904-23.611,116.945c-15.132,35.777-36.795,67.906-64.385,95.497
			c-27.591,27.59-59.721,49.253-95.497,64.385C972.464,853.29,933.118,861.234,892.561,861.234z"/>
	</g>
	<g>
		<path style="fill:#E5E6E7;" d="M892.514,878.689c-13.518,0-27.056-0.873-40.581-2.622c-40.75-5.269-79.637-18.228-115.581-38.515
			c-35.944-20.287-67.134-46.882-92.704-79.046c-26.475-33.301-45.734-71.142-57.241-112.471
			c-11.507-41.329-14.575-83.677-9.119-125.869c5.269-40.75,18.228-79.637,38.515-115.581s46.882-67.134,79.046-92.704
			c33.301-26.475,71.142-45.733,112.471-57.24c25.24-7.027,51.21-10.934,77.189-11.611l0.189,7.23
			c-25.387,0.662-50.768,4.48-75.437,11.349c-40.391,11.246-77.37,30.065-109.909,55.934c-31.431,24.988-57.421,55.47-77.248,90.598
			c-19.827,35.128-32.491,73.131-37.641,112.953c-5.331,41.227-2.332,82.61,8.914,123.001c11.246,40.391,30.065,77.37,55.935,109.91
			c24.988,31.431,55.47,57.421,90.598,77.248c35.128,19.827,73.131,32.491,112.953,37.641c13.21,1.708,26.443,2.561,39.648,2.561
			c28.004,0.001,55.904-3.833,83.353-11.476c42.95-11.958,81.927-32.407,115.849-60.778c16.275-13.612,31.217-28.982,44.408-45.682
			c13.084-16.564,24.527-34.534,34.009-53.414l6.464,3.246c-9.702,19.317-21.41,37.704-34.797,54.651
			c-13.499,17.089-28.789,32.816-45.444,46.746c-34.717,29.036-74.602,49.962-118.549,62.198
			C949.721,874.766,921.167,878.689,892.514,878.689z"/>
	</g>
	<g>
		<path style="fill:#E5E6E7;" d="M891.48,896.893c-6.709,0-13.428-0.199-20.161-0.597c-39.062-2.31-77.075-11.245-112.984-26.558
			c-36.731-15.663-70.047-37.504-99.025-64.916l4.971-5.255c28.353,26.821,60.953,48.191,96.892,63.517
			c35.142,14.986,72.344,23.731,110.573,25.991c38.487,2.276,76.655-2.106,113.444-13.025
			c38.078-11.302,73.583-29.311,105.527-53.528c35.549-26.95,64.755-60.054,86.807-98.393
			c21.301-37.033,35.068-77.368,40.917-119.885c5.85-42.517,3.487-85.071-7.021-126.481c-10.879-42.87-30.06-82.631-57.009-118.18
			c-27.136-35.794-60.5-65.148-99.168-87.248c-37.349-21.346-78.01-35.041-120.854-40.705l0.948-7.171
			c43.779,5.787,85.329,19.782,123.496,41.596c39.518,22.586,73.615,52.583,101.342,89.158
			c27.538,36.324,47.138,76.957,58.257,120.771c10.739,42.317,13.153,85.801,7.175,129.246
			c-5.978,43.445-20.045,84.661-41.813,122.506c-22.538,39.183-52.383,73.013-88.708,100.551
			c-32.64,24.745-68.922,43.148-107.838,54.698C956.088,892.233,923.957,896.893,891.48,896.893z"/>
	</g>
	<g>
		<path style="fill:#DCDCDB;" d="M549.483,167.943H425.444V92.689h124.039V167.943z M431.954,161.433h111.02V99.199h-111.02V161.433
			z"/>
	</g>
	<g>
		
			<ellipse transform="matrix(0.0453 -0.999 0.999 0.0453 -270.3657 553.4661)" style="fill:#E5E6E7;" cx="154.388" cy="418.187" rx="90.493" ry="90.493"/>
	</g>
	<g>
		
			<ellipse transform="matrix(0.0553 -0.9985 0.9985 0.0553 -231.1967 358.5246)" style="fill:#E5E6E7;" cx="73.867" cy="301.44" rx="23.867" ry="23.867"/>
	</g>
	<g>
		<rect x="1308.572" y="953.291" style="fill:#DCDCDB;" width="117.529" height="74.14"/>
	</g>
	<g>
		<rect x="1038.071" y="69.008" style="fill:#E5E6E7;" width="286.849" height="143.077"/>
	</g>
	<g>
		<rect x="1560.998" y="95.944" style="fill:#DCDCDB;" width="143.424" height="71.538"/>
	</g>
	<g>
		<path style="fill:#A6A7AA;" d="M867.462,760.446l-11.318,66.026c39.513,6.801,78.65,4.586,115.213-5.219l-17.302-64.73
			C926.575,763.894,897.16,765.558,867.462,760.446z"/>
		<path style="fill:#DCDCDB;" d="M703.468,518.399c11.582-54.317,43.923-98.871,86.943-127.132l-36.782-55.986
			c-57.237,37.602-100.268,96.881-115.677,169.149c-0.966,4.532-1.812,9.061-2.54,13.585l66.147,10.595
			C702.106,525.209,702.742,521.805,703.468,518.399z"/>
		<path style="fill:#DCDCDB;" d="M780.416,723.121l-40.086,53.691c7.781,5.817,15.91,11.236,24.364,16.219l34.149-57.652
			C792.448,731.615,786.299,727.52,780.416,723.121z"/>
		<path style="fill:#DCDCDB;" d="M711.549,630.909l-62.845,23.216c13.501,36.444,34.747,69.627,62.172,97.138l47.402-47.345
			C737.665,683.242,721.697,658.301,711.549,630.909z"/>
		<path style="fill:#DCDCDB;" d="M806.203,739.507l-31.7,59.031c10.356,5.531,21.158,10.425,32.366,14.619l23.616-62.697
			C822.078,747.317,813.973,743.651,806.203,739.507z"/>
		<path style="fill:#DCDCDB;" d="M817.481,816.877c4.69,1.536,9.444,2.954,14.264,4.244l17.377-64.697
			c-3.607-0.966-7.165-2.026-10.677-3.175L817.481,816.877z"/>
		<path style="fill:#A6A7AA;" d="M971.947,750.822l23.215,62.845c79.617-29.496,143.683-95.954,166.996-183.041l-64.697-17.378
			C1079.939,678.702,1031.787,728.652,971.947,750.822z"/>
		<path style="fill:#DCDCDB;" d="M890.018,358.263l-3.862-66.893c-11.99,0.686-23.832,2.169-35.461,4.414l12.67,65.797
			C872.106,359.894,881.007,358.779,890.018,358.263z"/>
		<path style="fill:#DCDCDB;" d="M700.385,537.033l-66.535-7.811c-3.329,28.074-2.168,55.824,2.972,82.454l65.797-12.671
			C698.754,578.99,697.883,558.132,700.385,537.033z"/>
		<path style="fill:#DCDCDB;" d="M943.971,362.431c59.482,12.682,107.256,50.26,134.746,99.494l58.726-32.233
			c-36.538-65.702-100.2-115.868-179.502-132.777c-20.304-4.33-40.561-6.247-60.475-5.952l1.052,66.995
			C913.486,357.736,928.711,359.177,943.971,362.431z"/>
		<path style="fill:#DCDCDB;" d="M821.51,374.497l-26.504-61.529c-10.959,4.731-21.581,10.177-31.795,16.294l34.402,57.481
			C805.29,382.146,813.274,378.053,821.51,374.497z"/>
		<path style="fill:#DCDCDB;" d="M704.409,607.32l-65.205,15.419c0.602,2.539,1.238,5.066,1.912,7.581l64.73-17.302
			C705.34,611.128,704.862,609.228,704.409,607.32z"/>
		<path style="fill:#DCDCDB;" d="M805.488,308.705l23.9,62.588c8.338-3.193,16.909-5.844,25.662-7.921l-15.419-65.205
			C827.986,300.929,816.582,304.457,805.488,308.705z"/>
		<path style="fill:#DCDCDB;" d="M1171.398,555.748l-66.989,1.424c0.203,12.442-0.744,25.063-2.926,37.736l66.026,11.316
			C1170.428,589.273,1171.687,572.389,1171.398,555.748z"/>
		<path style="fill:#DCDCDB;" d="M1103.258,538.746l66.572-7.617c-3.03-27.541-10.286-54.148-21.232-78.994l-61.46,26.663
			C1095.476,497.64,1100.988,517.837,1103.258,538.746z"/>
	</g>
	<g>
		<polygon style="fill:#4674B7;" points="1390.395,656.363 1375.267,662.21 1383.188,668.836 1328.546,734.141 1288.266,700.439 
			1217.831,784.62 1226.062,791.507 1289.611,715.557 1328.883,748.417 1329.89,749.259 1391.418,675.723 1399.349,682.36 
			1402.436,666.439 1405.521,650.517 		"/>
	</g>
	<g>
		<rect x="1227.184" y="824.639" style="fill:#A6A7AA;" width="31.95" height="95.939"/>
	</g>
	<g>
		<rect x="1271.782" y="770.036" style="fill:#A6A7AA;" width="31.951" height="151.595"/>
	</g>
	<g>
		<rect x="1316.454" y="792.88" style="fill:#A6A7AA;" width="31.95" height="128.751"/>
	</g>
	<g>
		<rect x="1361.126" y="741.533" style="fill:#A6A7AA;" width="31.951" height="180.099"/>
	</g>
	<g>
		<path style="fill:#DCDCDB;" d="M586.347,843.629c0-27.914-17.38-51.749-41.9-61.331c14.147-10.44,23.365-27.185,23.365-46.12
			c0-31.674-25.683-57.352-57.356-57.352c-31.68,0-57.356,25.679-57.356,57.352c0,18.935,9.217,35.68,23.365,46.12
			c-24.521,9.582-41.901,33.417-41.901,61.331v41.148h59.366l-1.157-1.98l8.841-61.55l-8.841-19.722l8.841-19.723h17.683
			l8.841,19.723l-8.841,19.722l8.841,61.55l-1.157,1.98h59.366V843.629z"/>
		<polygon style="fill:#4674B7;" points="519.298,821.247 528.138,801.524 519.298,781.801 501.614,781.801 492.773,801.524 
			501.614,821.247 492.773,882.797 493.93,884.777 509.1,910.725 511.812,910.725 526.981,884.777 528.138,882.797 		"/>
	</g>
	<g>
		<path style="fill:#B6986D;" d="M381.592,106.559c-16.682,0-31.806,6.634-42.91,17.39l42.91,44.296V106.559z"/>
	</g>
	<path style="fill:#A6A7AA;" d="M335.965,140.693c-11.572,11.212-18.777,26.906-18.777,44.295c0,13.291,4.219,25.592,11.37,35.66
		l50.316-35.66L335.965,140.693z"/>
	<path style="fill:#DCDCDB;" d="M455.42,187.639c-0.009-2.75-0.208-5.453-0.557-8.107c-0.134-1.007-0.291-2.007-0.471-2.997
		c-0.39-2.143-0.886-4.249-1.488-6.309c-0.258-0.888-0.536-1.764-0.833-2.636c-0.649-1.906-1.387-3.771-2.21-5.588
		c-0.357-0.795-0.728-1.576-1.117-2.352c-0.86-1.71-1.794-3.378-2.801-4.997c-0.442-0.71-0.891-1.416-1.359-2.107
		c-1.164-1.707-2.408-3.357-3.728-4.939c-0.524-0.627-1.059-1.247-1.609-1.857c-1.232-1.365-2.526-2.672-3.873-3.928
		c-0.597-0.556-1.209-1.101-1.828-1.635c-1.402-1.209-2.855-2.356-4.36-3.438c-0.672-0.487-1.352-0.962-2.045-1.42
		c-1.577-1.046-3.2-2.028-4.873-2.927c-0.753-0.407-1.518-0.798-2.29-1.176c-1.974-0.962-4.005-1.823-6.089-2.577
		c-0.855-0.309-1.715-0.606-2.587-0.878c-2.026-0.635-4.095-1.17-6.202-1.602c-0.971-0.197-1.952-0.373-2.939-0.526
		c-2.334-0.36-4.713-0.581-7.123-0.676c-0.838-0.032-1.678-0.064-2.524-0.064c-0.678,0-1.225,0.549-1.225,1.225v2.59v7.799v3.466
		v7.799v3.467v8.669v3.465v7.8v3.467v7.798v3.468v1.271l-4.361,3.087l-11.901,8.434l-26.784,18.983l-6.755,4.79
		c-0.265,0.186-0.446,0.471-0.5,0.791c-0.054,0.321,0.022,0.652,0.209,0.916c0.076,0.107,0.161,0.207,0.236,0.312
		c1.088,1.512,2.248,2.955,3.454,4.351c0.536,0.619,1.074,1.234,1.634,1.831c1.258,1.349,2.574,2.633,3.938,3.857
		c0.611,0.55,1.231,1.084,1.859,1.608c1.591,1.321,3.227,2.58,4.933,3.734c0.694,0.47,1.409,0.905,2.121,1.347
		c1.624,1.009,3.288,1.946,4.995,2.805c0.776,0.385,1.553,0.768,2.343,1.123c1.828,0.825,3.703,1.546,5.606,2.194
		c0.871,0.296,1.744,0.579,2.628,0.835c2.065,0.607,4.159,1.124,6.287,1.516c0.996,0.181,2.002,0.324,3.006,0.456
		c2.671,0.358,5.376,0.555,8.105,0.563c0.058,0.003,0.114,0.006,0.173,0.006c1.135,0,2.261-0.034,3.38-0.094
		c3.037-0.161,6.015-0.542,8.924-1.123c1.544-0.308,3.064-0.681,4.564-1.098c4.59-1.279,8.978-3.051,13.084-5.283
		c4.176-2.272,8.061-5.016,11.6-8.136c1.992-1.756,3.871-3.634,5.625-5.625c3.124-3.541,5.866-7.422,8.137-11.602
		c2.233-4.104,4.004-8.492,5.284-13.081c0.418-1.503,0.79-3.023,1.099-4.569c0.578-2.905,0.96-5.885,1.123-8.921
		c0.059-1.122,0.092-2.247,0.092-3.382C455.424,187.756,455.42,187.696,455.42,187.639z"/>
	<g>
		<g>
			<path style="fill:#A5A7A9;" d="M534.669,394.392l11.79,5.364l9.279-20.397l-11.789-5.364c0,0-3.441-3.16-3.887-11.46
				c0.145-1.666,0.221-3.329,0.221-4.99c0.867-8.853,4.747-11.955,4.747-11.955l12.129-4.542l-7.862-20.986l-12.13,4.543
				c0,0-5.166,0.219-11.828-6.275c-0.469-0.526-0.948-1.046-1.437-1.556c-6.327-7.264-5.736-12.565-5.736-12.565l5.364-11.791
				l-20.398-9.28l-5.364,11.79c0,0-3.607,3.929-13.241,3.93c-0.722-0.034-1.443-0.052-2.165-0.06
				c-0.004-0.001-0.009-0.002-0.013-0.001l0,0c-0.198-0.002-0.399-0.007-0.598-0.006c-8.852-0.867-11.953-4.746-11.953-4.746
				l-4.543-12.13l-20.985,7.86l4.543,12.13c0,0,0.217,5.166-6.274,11.827c-0.527,0.472-1.049,0.952-1.561,1.444
				c-7.263,6.322-12.561,5.731-12.561,5.731l-11.79-5.363l-9.28,20.398l11.79,5.364c0,0,3.927,3.607,3.931,13.239
				c-0.033,0.723-0.053,1.447-0.061,2.17c0,0.003,0,0.007,0,0.011l0,0c-0.002,0.199-0.006,0.398-0.006,0.598
				c-0.868,8.851-4.747,11.952-4.747,11.952l-12.129,4.542l7.861,20.986l12.129-4.543c0,0,5.165-0.217,11.825,6.271
				c0.962,1.079,1.967,2.122,3.011,3.133c5.119,6.55,4.599,11.19,4.599,11.19l-5.365,11.79l20.399,9.279l5.363-11.789
				c0,0,4.144-4.517,15.419-3.87l-0.045-0.049c9.344,0.738,12.597,4.802,12.597,4.802l4.542,12.129l20.985-7.862l-4.542-12.128
				c0,0-0.265-6.125,8.166-13.64l-0.239-0.006C529.721,393.838,534.669,394.392,534.669,394.392z M467.227,389.113
				c-17.468-7.948-25.214-28.626-17.266-46.094c7.947-17.468,28.625-25.215,46.093-17.267c17.47,7.949,25.215,28.625,17.268,46.094
				C505.375,389.315,484.697,397.062,467.227,389.113z"/>
		</g>
	</g>
	<g>
		<g>
			<path style="fill:#4674B7;" d="M587.374,308.495l4.875,4.537l7.849-8.433l-4.875-4.537c0,0-1.163-2.101-0.027-6.222
				c0.342-0.788,0.65-1.587,0.92-2.397c1.866-4.176,4.263-5.055,4.263-5.055l6.654-0.238l-0.413-11.514l-6.655,0.238
				c0,0-2.555-0.736-4.745-4.987c-0.143-0.333-0.292-0.664-0.447-0.993c-1.901-4.573-0.749-7.061-0.749-7.061l4.537-4.875
				l-8.434-7.85l-4.536,4.875c0,0-2.399,1.328-7.097-0.241c-0.346-0.134-0.695-0.26-1.046-0.382
				c-0.002-0.001-0.004-0.002-0.004-0.002h-0.002c-0.097-0.033-0.193-0.068-0.291-0.1c-4.175-1.865-5.055-4.262-5.055-4.262
				l-0.238-6.655l-11.513,0.413l0.238,6.655c0,0-0.736,2.554-4.987,4.744c-0.334,0.144-0.667,0.293-0.997,0.449
				c-4.572,1.899-7.059,0.747-7.059,0.747l-4.875-4.537l-7.849,8.434l4.875,4.536c0,0,1.327,2.399-0.241,7.096
				c-0.134,0.347-0.262,0.697-0.384,1.048c-0.001,0.001-0.001,0.003-0.002,0.005l0,0c-0.033,0.096-0.068,0.193-0.1,0.29
				c-1.866,4.174-4.263,5.054-4.263,5.054l-6.654,0.238l0.413,11.514l6.654-0.238c0,0,2.554,0.736,4.744,4.985
				c0.293,0.683,0.613,1.355,0.958,2.018c1.428,4.028,0.419,6.206,0.419,6.206l-4.537,4.875l8.434,7.849l4.537-4.874
				c0,0,2.757-1.527,8.148,0.626l-0.014-0.031c4.435,1.883,5.36,4.395,5.36,4.395l0.238,6.655l11.513-0.414l-0.238-6.654
				c0,0,0.869-3.03,6.205-5.32l-0.115-0.042C585.051,307.419,587.374,308.495,587.374,308.495z M555.349,294.93
				c-7.222-6.722-7.629-18.067-0.906-25.29c6.722-7.223,18.067-7.63,25.289-0.907c7.223,6.723,7.63,18.067,0.908,25.29
				C573.917,301.245,562.572,301.653,555.349,294.93z"/>
		</g>
	</g>
	<g>
		<g>
			<rect x="1192.682" y="119.241" style="fill:#A6A7AA;" width="358.741" height="235.24"/>
		</g>
		<g>
			<rect x="1223.772" y="151.391" style="fill:#FFFFFF;" width="296.56" height="170.941"/>
		</g>
		<g>
			<polygon style="fill:#B6986D;" points="1389.052,307.02 1367.719,180.784 1340.18,239.676 1276.388,239.676 1276.388,234.613 
				1336.958,234.613 1370.007,163.939 1390.127,282.995 1406.77,219.625 1467.716,219.625 1467.716,224.688 1410.675,224.688 			"/>
		</g>
		<g>
			<rect x="1318.561" y="354.48" style="fill:#595A5C;" width="106.982" height="30.229"/>
		</g>
		<g>
			<rect x="1287.15" y="384.709" style="fill:#A6A7AA;" width="169.804" height="16.304"/>
		</g>
		<g>
			<path style="fill:#E6E6E6;" d="M1533.193,336.252H1210.91V137.47h322.283V336.252z M1212.719,334.444h318.667V139.278h-318.667
				V334.444z"/>
		</g>
	</g>
	<g>
		
			<ellipse transform="matrix(0.984 -0.1784 0.1784 0.984 -101.893 69.671)" style="fill:none;" cx="336.398" cy="601.323" rx="41.665" ry="41.666"/>
		<path style="fill:none;" d="M496.113,611.272c0-7.106-5.76-12.865-12.866-12.865c-7.105,0-12.865,5.76-12.865,12.865
			c0,7.105,5.76,12.865,12.865,12.865C490.353,624.137,496.113,618.377,496.113,611.272z"/>
		<path style="fill:#4674B7;" d="M336.485,663.589h-0.087v-20.601c-23.011,0-41.665-18.654-41.665-41.666
			c0-23.011,18.654-41.665,41.665-41.665v-20.602c31.703,0,57.872,23.692,61.767,54.337c-3.895-30.645-30.064-54.338-61.767-54.338
			c-34.39,0-62.268,27.879-62.268,62.268c0,34.389,27.878,62.268,62.268,62.268c18.27,0,34.701-7.868,46.092-20.4
			C371.118,655.702,354.72,663.564,336.485,663.589z"/>
		<path style="fill:#2C436D;" d="M336.398,539.055v20.602c23.012,0,41.665,18.654,41.665,41.665
			c0,23.011-18.654,41.666-41.665,41.666v20.601h0.087c18.235-0.025,34.632-7.887,46.005-20.399
			c0.335-0.369,0.666-0.741,0.992-1.118c9.46-10.921,15.184-25.167,15.184-40.75c0-2.687-0.17-5.334-0.5-7.931
			C394.27,562.747,368.101,539.055,336.398,539.055z"/>
		<path style="fill:#4674B7;" d="M500.231,611.272c0-9.379-7.603-16.983-16.983-16.983v-8.398h0
			c-14.017,0-25.38,11.363-25.38,25.381c0,14.017,11.363,25.381,25.38,25.381h0v-8.398
			C492.627,628.255,500.231,620.651,500.231,611.272z M470.382,611.272c0-7.106,5.76-12.865,12.865-12.865
			c7.106,0,12.866,5.76,12.866,12.865c0,7.105-5.76,12.865-12.866,12.865C476.142,624.137,470.382,618.377,470.382,611.272z"/>
		<path style="fill:#4674B7;" d="M507.487,603.724c0.344,1.106,0.609,2.246,0.8,3.411
			C508.096,605.97,507.831,604.83,507.487,603.724z"/>
		<path style="fill:#4674B7;" d="M506.634,601.392c0.317,0.75,0.599,1.52,0.844,2.305
			C507.233,602.912,506.951,602.143,506.634,601.392z"/>
		<path style="fill:#4674B7;" d="M506.126,600.268c0.094,0.194,0.178,0.393,0.267,0.59
			C506.304,600.661,506.219,600.462,506.126,600.268z"/>
		<path style="fill:#4674B7;" d="M508.336,615.137c-0.557,3.646-1.895,7.034-3.831,9.996
			C506.441,622.171,507.779,618.783,508.336,615.137z"/>
		<path style="fill:#2C436D;" d="M508.288,607.135c-0.191-1.165-0.456-2.305-0.8-3.411c-0.003-0.009-0.006-0.018-0.009-0.027
			c-0.245-0.785-0.527-1.555-0.844-2.305c-0.076-0.18-0.161-0.356-0.242-0.534c-0.089-0.197-0.173-0.396-0.267-0.59
			c-4.099-8.507-12.803-14.378-22.878-14.378v0.001v8.398c9.38,0,16.983,7.604,16.983,16.983c0,9.379-7.603,16.983-16.983,16.983
			v8.398v0c8.901,0,16.727-4.586,21.258-11.52c1.935-2.962,3.273-6.349,3.831-9.996c0.193-1.26,0.292-2.551,0.292-3.865
			c0-0.876-0.044-1.742-0.131-2.595C508.445,608.157,508.371,607.644,508.288,607.135z"/>
		<path style="fill:#B6986D;" d="M376.231,503.479c11.84,0,21.439-9.599,21.439-21.439c0-11.84-9.599-21.439-21.439-21.439
			c-11.841,0-21.44,9.599-21.44,21.439C354.792,493.88,364.39,503.479,376.231,503.479z"/>
		<path style="fill:#A6A7AA;" d="M287.881,696.171c-15.375,0-27.84,12.464-27.84,27.839c0,15.375,12.464,27.839,27.84,27.839
			c15.375,0,27.839-12.464,27.839-27.839C315.72,708.635,303.256,696.171,287.881,696.171z"/>
		
			<ellipse transform="matrix(0.9732 -0.2298 0.2298 0.9732 -110.3145 71.9173)" style="fill:#A6A7AA;" cx="253.677" cy="509.682" rx="11.552" ry="11.552"/>
		
			<ellipse transform="matrix(0.0384 -0.9993 0.9993 0.0384 -145.5442 925.4042)" style="fill:#A6A7AA;" cx="408.041" cy="538.323" rx="11.552" ry="11.552"/>
		<path style="fill:#4674B7;" d="M189.066,598.18c-8.702,0-15.756,7.054-15.756,15.755c0,8.702,7.054,15.755,15.756,15.755
			c8.701,0,15.755-7.053,15.755-15.755C204.821,605.235,197.768,598.18,189.066,598.18z"/>
	</g>
	<g>
		<g>
			<rect x="1461.129" y="848.828" style="fill:#595A5C;" width="135.421" height="176.051"/>
		</g>
		<g>
			<rect x="1476.985" y="862.541" style="fill:#FFFFFF;" width="103.709" height="48.426"/>
		</g>
		<g>
			<polygon style="fill:#FFFFFF;" points="1520.976,933.792 1507.838,933.792 1507.838,920.655 1496.696,920.655 1496.696,933.792 
				1483.559,933.792 1483.559,944.934 1496.696,944.934 1496.696,958.072 1507.838,958.072 1507.838,944.934 1520.976,944.934 			
				"/>
		</g>
		<g>
			<polygon style="fill:#FFFFFF;" points="1519.435,981.072 1511.557,973.192 1502.267,982.482 1492.978,973.192 1485.099,981.072 
				1494.388,990.361 1485.099,999.65 1492.978,1007.529 1502.267,998.239 1511.557,1007.529 1519.435,999.65 1510.146,990.361 			
				"/>
		</g>
		<g>
			<rect x="1537.267" y="933.792" style="fill:#FFFFFF;" width="37.417" height="11.142"/>
		</g>
		<g>
			<g>
				
					<rect x="1537.267" y="984.789" transform="matrix(0.7072 -0.7071 0.7071 0.7072 -244.5816 1390.1962)" style="fill:#FFFFFF;" width="37.416" height="11.143"/>
			</g>
			<g>
				<path style="fill:#FFFFFF;" d="M1548.684,973.372c2.678,2.678,2.678,7.02,0,9.698c-2.678,2.678-7.02,2.678-9.698,0
					c-2.678-2.678-2.678-7.02,0-9.698C1541.665,970.694,1546.006,970.694,1548.684,973.372z"/>
			</g>
			<g>
				<path style="fill:#FFFFFF;" d="M1572.964,997.652c2.679,2.678,2.679,7.02,0,9.698c-2.678,2.678-7.02,2.678-9.698,0
					c-2.678-2.678-2.678-7.02,0-9.698C1565.944,994.973,1570.286,994.973,1572.964,997.652z"/>
			</g>
		</g>
	</g>
	<g>
		<g>
			<rect x="660.171" y="153.858" style="fill:#A6A7AA;" width="25.155" height="16.611"/>
		</g>
		<g>
			<rect x="660.171" y="131.713" style="fill:#DCDCDB;" width="25.155" height="16.611"/>
		</g>
		<g>
			<rect x="660.171" y="176.827" style="fill:#4F4F50;" width="25.155" height="51.869"/>
		</g>
		<g>
			<rect x="628.425" y="153.858" style="fill:#A6A7AA;" width="25.155" height="16.611"/>
		</g>
		<g>
			<rect x="628.425" y="131.713" style="fill:#A6A7AA;" width="25.155" height="16.611"/>
		</g>
		<g>
			<rect x="628.425" y="109.732" style="fill:#DCDCDB;" width="25.155" height="16.611"/>
		</g>
		<g>
			<rect x="628.425" y="87.588" style="fill:#DCDCDB;" width="25.155" height="16.611"/>
		</g>
		<g>
			<rect x="628.425" y="176.827" style="fill:#4F4F50;" width="25.155" height="51.869"/>
		</g>
		<g>
			<rect x="692.751" y="176.415" style="fill:#A6A7AA;" width="25.155" height="16.611"/>
		</g>
		<g>
			<rect x="692.751" y="154.27" style="fill:#DCDCDB;" width="25.155" height="16.611"/>
		</g>
		<g>
			<rect x="721.312" y="212.085" style="fill:#4F4F50;" width="25.156" height="16.611"/>
		</g>
		<g>
			<rect x="692.751" y="199.383" style="fill:#4F4F50;" width="25.155" height="29.312"/>
		</g>
	</g>
	<g>
		<path style="fill:#6892B2;" d="M80.697,515.541c-5.216,1.722-8.048,7.347-6.326,12.563c1.723,5.216,7.347,8.049,12.563,6.326
			c5.217-1.722,8.049-7.347,6.327-12.563C91.539,516.651,85.914,513.818,80.697,515.541z"/>
		<path style="fill:#A6A7AA;" d="M125.438,412.827c-5.216,1.722-8.048,7.347-6.326,12.563c1.723,5.216,7.347,8.049,12.563,6.326
			c5.217-1.722,8.048-7.347,6.327-12.563C136.279,413.936,130.655,411.104,125.438,412.827z"/>
		<path style="fill:#A6A7AA;" d="M206.558,434.052c-5.215,1.722-8.048,7.347-6.325,12.564c1.721,5.216,7.347,8.048,12.563,6.326
			c5.216-1.723,8.048-7.348,6.326-12.563C217.399,435.162,211.775,432.329,206.558,434.052z"/>
		<path style="fill:#B6986D;" d="M258.849,318.349c-5.215,1.723-8.047,7.347-6.325,12.563c1.721,5.215,7.346,8.049,12.562,6.326
			c5.217-1.721,8.048-7.347,6.326-12.563C269.689,319.46,264.065,316.627,258.849,318.349z"/>
		<path style="fill:#A6A7AA;" d="M319.971,362.325c-5.216,1.722-8.048,7.347-6.326,12.563c1.723,5.216,7.347,8.048,12.563,6.325
			c5.217-1.722,8.048-7.347,6.326-12.563C330.812,363.435,325.188,360.602,319.971,362.325z"/>
		<path style="fill:#A6A7AA;" d="M372.601,308.271c-1.723-5.216-7.347-8.049-12.564-6.326c-5.215,1.722-8.047,7.347-6.326,12.563
			c1.723,5.216,7.347,8.048,12.564,6.326C371.491,319.111,374.323,313.486,372.601,308.271z"/>
	</g>
	<g>
		<g>
			<path style="fill:#A6A7AA;" d="M166.863,730.634c-10.367,0-15.861,0-18.774,0c-3.284,0-3.285,0-3.285,0
				c-2.913,0-8.407,0-18.773,0c-22.059,0-21.589,2.816-19.712,13.141c1.878,10.325,26.752,23.563,26.752,23.563l10.419,11.636
				l16.333-11.636c0,0,24.875-13.238,26.752-23.563C188.452,733.45,188.921,730.634,166.863,730.634z"/>
			<path style="fill:#FFFFFF;" d="M143.463,779.216l-10.506-11.733c-0.466-0.25-6.496-3.51-12.663-7.907
				c-8.604-6.133-13.365-11.439-14.153-15.768c-0.864-4.753-1.435-7.893,0.322-9.998c2.068-2.478,7.189-3.356,19.568-3.356h40.832
				c12.379,0,17.499,0.878,19.568,3.356c1.757,2.105,1.186,5.245,0.322,9.998c-0.787,4.33-5.549,9.635-14.153,15.768
				c-6.389,4.554-12.63,7.889-12.692,7.922L143.463,779.216z M126.031,730.815c-12.099,0-17.327,0.874-19.29,3.226
				c-1.648,1.975-1.09,5.049-0.244,9.702c1.841,10.122,26.411,23.304,26.659,23.436l0.05,0.039l10.311,11.516l16.201-11.542
				c0.268-0.144,24.839-13.328,26.679-23.448c0.846-4.653,1.405-7.727-0.244-9.702c-1.963-2.352-7.191-3.226-19.29-3.226H126.031z"
				/>
		</g>
		<g>
			<path style="fill:#A6A7AA;" d="M205.272,818.076c0,28.147-26.337,50.964-58.825,50.964c-32.488,0-58.825-22.817-58.825-50.964
				c0-28.146,26.337-66.687,58.825-66.687C178.935,751.39,205.272,789.93,205.272,818.076z"/>
			<path style="fill:#FFFFFF;" d="M146.447,874.465c-17.017,0-33.051-5.772-45.148-16.252
				c-12.318-10.672-19.102-24.926-19.102-40.137c0-15.36,6.893-33.046,18.438-47.311c6.012-7.429,12.811-13.355,20.208-17.615
				c8.279-4.768,16.894-7.185,25.605-7.185c8.711,0,17.325,2.418,25.604,7.185c7.397,4.26,14.195,10.186,20.208,17.615
				c11.545,14.265,18.437,31.951,18.437,47.311c0,15.211-6.784,29.465-19.102,40.137
				C179.498,868.693,163.464,874.465,146.447,874.465z M146.447,756.814c-7.68,0-22.749,2.699-37.379,20.776
				c-9.883,12.211-16.022,27.724-16.022,40.486c0,25.11,23.955,45.539,53.401,45.539c29.445,0,53.4-20.429,53.4-45.539
				c0-12.761-6.139-28.275-16.021-40.486C169.196,759.513,154.127,756.814,146.447,756.814z"/>
		</g>
		<g>
			<g>
				<path style="fill:#FFFFFF;" d="M163.688,810.485c-2.036-1.607-5.093-2.89-9.172-3.85l-3.375-0.796v-13.361
					c0.23,0.095,0.453,0.197,0.67,0.305c2.655,1.343,4.082,3.61,4.278,6.8h10.65c-0.195-5.636-2.289-9.936-6.283-12.898
					c-2.719-2.017-5.825-3.345-9.315-3.989v-7.779h-9.387v7.557c-4.723,0.539-8.453,2.029-11.181,4.481
					c-3.497,3.143-5.245,7.088-5.245,11.837c0,5.205,1.787,9.031,5.361,11.477c2.038,1.413,5.73,2.726,11.064,3.938v14.415
					c-2.029-0.526-3.595-1.436-4.691-2.738c-1.004-1.199-1.677-3.01-2.021-5.432h-10.577c0,5.517,2,9.852,6,13.006
					c2.951,2.327,6.716,3.792,11.289,4.402v7.653h9.387v-7.552c4.839-0.542,8.732-2.064,11.67-4.575
					c3.746-3.202,5.619-7.226,5.619-12.071C168.43,816.589,166.849,812.979,163.688,810.485z M138.163,802.246
					c-1.721-0.936-2.582-2.35-2.582-4.245c0-2.063,0.873-3.67,2.619-4.821c0.992-0.654,2.181-1.116,3.553-1.398v11.777
					C140.06,803.078,138.863,802.64,138.163,802.246z M153.005,828.294c-0.563,0.195-1.187,0.353-1.865,0.482v-12.42
					c1.826,0.525,3.255,1.099,4.283,1.72c1.547,0.96,2.321,2.315,2.321,4.065C157.744,825.14,156.164,827.191,153.005,828.294z"/>
			</g>
		</g>
	</g>
	<g>
		<g>
			<path style="fill:#A6A7AA;" d="M1678.262,311.789c-3.625-2.861-9.069-5.147-16.333-6.855l-6.01-1.418v-23.792
				c0.409,0.17,0.807,0.351,1.194,0.544c4.728,2.392,7.268,6.429,7.619,12.108h18.963c-0.346-10.036-4.076-17.692-11.188-22.967
				c-4.843-3.591-10.373-5.957-16.588-7.103v-13.851h-16.715v13.456c-8.41,0.959-15.053,3.614-19.91,7.979
				c-6.226,5.596-9.339,12.621-9.339,21.077c0,9.269,3.181,16.081,9.546,20.437c3.63,2.517,10.203,4.854,19.703,7.011v25.669
				c-3.613-0.935-6.402-2.557-8.353-4.876c-1.788-2.135-2.987-5.36-3.598-9.674h-18.835c0,9.824,3.561,17.544,10.684,23.16
				c5.254,4.143,11.958,6.753,20.102,7.839v13.627h16.715v-13.448c8.617-0.965,15.549-3.674,20.781-8.147
				c6.67-5.702,10.005-12.866,10.005-21.494C1686.705,322.659,1683.89,316.232,1678.262,311.789z M1632.812,297.118
				c-3.065-1.666-4.598-4.185-4.598-7.56c0-3.673,1.554-6.534,4.663-8.585c1.766-1.165,3.884-1.987,6.327-2.49v20.971
				C1636.189,298.6,1634.057,297.821,1632.812,297.118z M1659.239,343.501c-1.002,0.346-2.114,0.629-3.32,0.858v-22.115
				c3.251,0.936,5.796,1.957,7.626,3.062c2.755,1.709,4.134,4.122,4.134,7.239C1667.678,337.885,1664.865,341.537,1659.239,343.501z
				"/>
		</g>
	</g>
	<g>
		<polygon style="fill:#A6A7AA;" points="754.369,914.687 729.54,914.687 705.988,954.697 682.295,914.687 657.324,914.687 
			687.723,965.274 676.371,965.274 676.371,981.912 694.496,981.912 694.496,984.984 676.371,984.984 676.371,1001.621 
			694.496,1001.621 694.496,1023.005 716.771,1023.005 716.771,1001.621 735.321,1001.621 735.321,984.984 716.771,984.984 
			716.771,981.912 735.321,981.912 735.321,965.274 723.901,965.274 		"/>
	</g>
	<g>
		<path style="fill:#A6A7AA;" d="M176.374,226.16c-0.809,6.47-3.033,11.684-6.673,15.637c-3.64,3.956-8.695,5.932-15.166,5.932
			c-4.765,0-8.809-0.92-12.133-2.764c-3.326-1.841-6.022-4.291-8.088-7.347c-0.357-0.527-0.691-1.07-1.015-1.62h18.742V220.19H128.6
			c-0.089-0.966-0.151-1.939-0.184-2.919h23.625v-15.808h-21.767c0.944-3.239,2.287-6.176,4.039-8.802
			c2.066-3.1,4.762-5.571,8.088-7.415c3.324-1.841,7.368-2.764,12.133-2.764c2.605,0,5.099,0.428,7.482,1.281
			c2.38,0.855,4.516,2.045,6.403,3.572c1.888,1.529,3.459,3.303,4.718,5.325c1.258,2.022,2.066,4.247,2.427,6.673h20.491
			c-0.63-5.571-2.157-10.515-4.584-14.829c-2.426-4.314-5.506-7.931-9.234-10.852c-3.73-2.919-7.953-5.144-12.672-6.673
			c-4.718-1.527-9.729-2.292-15.031-2.292c-7.37,0-13.999,1.304-19.884,3.909c-5.887,2.608-10.852,6.201-14.896,10.785
			c-4.044,4.584-7.145,9.955-9.301,16.11c-0.68,1.939-1.251,3.929-1.717,5.971H96.03v15.808h11.215
			c0.025,0.982,0.073,1.956,0.142,2.919H96.03v15.809h14.746c2.14,5.7,5.132,10.691,8.98,14.966
			c4.045,4.495,9.009,8.021,14.896,10.582c5.885,2.562,12.514,3.842,19.884,3.842c5.932,0,11.368-0.9,16.311-2.696
			c4.942-1.797,9.256-4.402,12.941-7.819c3.684-3.415,6.65-7.549,8.898-12.402c2.245-4.853,3.64-10.29,4.179-16.312H176.374z"/>
	</g>
	<g>
		<path style="fill:#D5772E;" d="M306.161,869.791c-2.602-0.556-5.225-1.147-7.795-1.755l1.249-5.279
			c2.532,0.599,5.116,1.181,7.679,1.729L306.161,869.791z"/>
	</g>
	<path style="fill:#DCDCDB;" d="M326.62,908.494c6.546-4.831,10.811-12.579,10.811-21.339c0-14.656-11.884-26.538-26.539-26.538
		c-14.658,0-26.539,11.882-26.539,26.538c0,8.761,4.265,16.509,10.811,21.339c-11.346,4.434-19.387,15.462-19.387,28.378v19.039
		h70.23v-19.039C346.007,923.956,337.965,912.928,326.62,908.494z"/>
	<path style="fill:#B6986D;" d="M310.892,860.617c-13.405,0-24.461,9.95-26.256,22.862c0.535,0.005,19.878,0.078,26.256-11.821
		c0,0,6.237,11.781,26.252,11.821C335.352,870.567,324.296,860.617,310.892,860.617z"/>
	<path style="fill:#DCDCDB;" d="M506.666,996.762c-2.822-2.895-6.245-5.205-10.077-6.702c6.146-4.54,10.151-11.815,10.151-20.04
		c0-1.177-0.112-2.327-0.269-3.458c-3.1-0.064-18.948-0.882-24.527-10.88c-5.58,9.998-21.427,10.816-24.528,10.88
		c-0.156,1.132-0.269,2.281-0.269,3.458c0,8.225,4.005,15.5,10.15,20.04c-3.832,1.497-7.255,3.807-10.077,6.702
		c-5.023,5.151-8.126,12.18-8.126,19.943v17.877h32.849h32.848v-17.877C514.792,1008.942,511.689,1001.912,506.666,996.762z"/>
	<g>
		<path style="fill:#4674B7;" d="M453.926,966.49v17.958c0,4.545,1.187,8.806,3.253,12.51c2.807-2.88,6.212-5.177,10.025-6.667
			c-6.114-4.516-10.098-11.753-10.098-19.934c0-1.171,0.111-2.315,0.267-3.441c3.084-0.064,18.85-0.878,24.4-10.823v-10.515v-0.008
			v-0.747v-0.003v-4.086h-2.091C465.46,940.734,453.926,952.264,453.926,966.49z"/>
		<path style="fill:#4674B7;" d="M484.214,940.734h-0.105h-2.336v4.087c0.041,0,0.083-0.007,0.124-0.007h0.047
			c0.019,0,0.039-0.003,0.057,0c0.057,0,0.112,0.01,0.172,0.013c-0.076,0-0.153-0.013-0.229-0.013
			c-0.057,0.004-0.115,0.008-0.172,0.01v0.746c0.041,0,0.083-0.004,0.124-0.004c0.016,0,0.035,0.003,0.051,0.003
			c-0.058,0.001-0.118,0.006-0.175,0.01v10.515c0.038-0.073,0.086-0.138,0.124-0.212c0,0,0.028,0.043,0.051,0.081
			c0.019-0.028,0.038-0.052,0.054-0.081c0,0,3.953,6.626,14.464,9.611c0.086,0.024,0.166,0.049,0.252,0.071
			c0.398,0.112,0.802,0.213,1.219,0.312c0.563,0.133,1.143,0.256,1.744,0.362c0.28,0.054,0.563,0.104,0.849,0.15
			c0.761,0.122,1.544,0.228,2.355,0.307c0.162,0.016,0.328,0.03,0.49,0.047c0.958,0.083,1.944,0.141,2.972,0.162
			c0.026,0,0.048,0,0.07,0.002c0.035,0,0.07,0.001,0.105,0.001c0.159,1.131,0.268,2.277,0.268,3.45
			c0,8.182-3.981,15.42-10.098,19.934c3.788,1.478,7.167,3.752,9.964,6.604c0.019,0.023,0.042,0.042,0.064,0.064
			c2.065-3.704,3.249-7.965,3.249-12.51V966.49C509.969,952.264,498.439,940.734,484.214,940.734z"/>
	</g>
	<g>
		<polygon style="fill:#A6A7AA;" points="840.543,56.31 840.543,66.112 933.413,66.112 933.413,181.892 942.487,181.892 
			942.487,56.31 		"/>
	</g>
	<g>
		<polygon style="fill:#DCDCDB;" points="912.839,198.785 823.966,198.785 823.966,69.008 930.517,69.008 930.517,179.215 		"/>
	</g>
	<g>
		<polygon style="fill:#A6A7AA;" points="930.517,179.215 912.839,179.215 912.839,198.785 		"/>
	</g>
	<g>
		<rect x="856.392" y="86.348" style="fill:#595A5C;" width="64.454" height="1.808"/>
	</g>
	<g>
		<rect x="832.416" y="93.285" style="fill:#595A5C;" width="88.43" height="1.808"/>
	</g>
	<g>
		<rect x="832.416" y="101.032" style="fill:#595A5C;" width="88.43" height="1.808"/>
	</g>
	<g>
		<rect x="832.416" y="145.819" style="fill:#595A5C;" width="88.43" height="1.808"/>
	</g>
	<g>
		<rect x="832.416" y="153.566" style="fill:#595A5C;" width="88.43" height="1.808"/>
	</g>
	<g>
		<rect x="832.416" y="161.754" style="fill:#595A5C;" width="88.43" height="1.808"/>
	</g>
	<g>
		<rect x="832.416" y="169.501" style="fill:#595A5C;" width="88.43" height="1.808"/>
	</g>
	<g>
		<rect x="832.416" y="177.737" style="fill:#595A5C;" width="70.897" height="1.808"/>
	</g>
	<g>
		<rect x="832.416" y="111.062" style="fill:#4674B7;" width="56.203" height="27.662"/>
	</g>
	<g>
		<rect x="893.62" y="111.062" style="fill:#B6986D;" width="25.45" height="27.662"/>
	</g>
	<g>
		<polygon style="fill:#A6A7AA;" points="983.719,1022.846 893.771,1022.846 908.415,983.248 969.076,983.248 		"/>
	</g>
	<g>
		<polygon style="fill:#A6A7AA;" points="1076.478,1022.846 986.529,1022.846 1001.173,983.248 1061.834,983.248 		"/>
	</g>
	<g>
		<polygon style="fill:#A6A7AA;" points="1169.236,1022.846 1079.288,1022.846 1093.932,983.248 1154.593,983.248 		"/>
	</g>
	<g>
		<polygon style="fill:#A6A7AA;" points="1030.099,978.227 940.151,978.227 954.794,938.627 1015.455,938.627 		"/>
	</g>
	<g>
		<polygon style="fill:#A6A7AA;" points="1122.857,978.227 1032.909,978.227 1047.553,938.627 1108.214,938.627 		"/>
	</g>
	<g>
		<polygon style="fill:#A6A7AA;" points="1077.883,935.086 987.935,935.086 1002.578,895.486 1063.24,895.486 		"/>
	</g>
	<g>
		<g>
			<path style="fill:#595A5C;" d="M1618.805,705.935c-8.967-8.968-20.89-13.906-33.572-13.906s-24.604,4.938-33.572,13.906
				c-8.967,8.967-13.906,20.89-13.906,33.572c0,12.682,4.938,24.605,13.906,33.572c8.967,8.968,20.89,13.906,33.572,13.906
				s24.604-4.938,33.572-13.906c8.968-8.967,13.906-20.89,13.906-33.572C1632.71,726.825,1627.772,714.902,1618.805,705.935z
				 M1586.972,783.469v-7.524h-3.478v7.524c-22.881-0.895-41.329-19.342-42.223-42.223h7.524v-3.478h-7.524
				c0.895-22.881,19.342-41.329,42.223-42.223v7.524h3.478v-7.524c22.881,0.894,41.329,19.342,42.223,42.223h-7.524v3.478h7.524
				C1628.301,764.127,1609.853,782.575,1586.972,783.469z"/>
		</g>
		<g>
			<polygon style="fill:#595A5C;" points="1586.972,708.725 1583.494,708.725 1583.494,741.246 1598.732,741.246 1598.732,737.768 
				1586.972,737.768 			"/>
		</g>
	</g>
	<g>
		<g>
			<g>
				<g>
					<polygon style="fill:#4674B7;" points="1053.306,443.361 1009.702,418.187 966.098,443.361 1009.702,468.536 					"/>
				</g>
				<g>
					<polygon style="fill:#A6A7AA;" points="966.098,443.361 966.098,720.923 1009.702,746.098 1009.702,468.536 					"/>
				</g>
				<g>
					<polygon style="fill:#DCDCDB;" points="1009.702,468.536 1009.702,746.098 1009.702,746.098 1053.306,720.923 
						1053.306,443.361 					"/>
				</g>
			</g>
			<g>
				<g>
					<polygon style="fill:#B6986D;" points="987.901,649.247 944.297,624.073 900.693,649.247 944.297,674.422 					"/>
				</g>
				<g>
					<polygon style="fill:#A6A7AA;" points="900.693,649.247 900.693,760.899 944.297,786.074 944.297,674.422 					"/>
				</g>
				<g>
					<polygon style="fill:#DCDCDB;" points="944.297,674.422 944.297,786.074 944.297,786.074 987.901,760.899 987.901,649.247 
											"/>
				</g>
			</g>
			<g>
				<g>
					<polygon style="fill:#4674B7;" points="922.495,558.922 878.891,533.747 835.287,558.922 878.891,584.097 					"/>
				</g>
				<g>
					<polygon style="fill:#A6A7AA;" points="835.287,558.922 835.287,800.875 878.891,826.05 878.891,584.097 					"/>
				</g>
				<g>
					<polygon style="fill:#DCDCDB;" points="878.891,584.097 878.891,826.05 878.891,826.05 922.495,800.875 922.495,558.922 					
						"/>
				</g>
			</g>
			<g>
				<g>
					<polygon style="fill:#B6986D;" points="857.09,729.198 813.485,704.024 769.881,729.198 813.485,754.374 					"/>
				</g>
				<g>
					<polygon style="fill:#A6A7AA;" points="769.881,729.198 769.881,840.85 813.485,866.026 813.485,754.374 					"/>
				</g>
				<g>
					<polygon style="fill:#DCDCDB;" points="813.485,754.374 813.485,866.026 813.485,866.026 857.09,840.85 857.09,729.198 					
						"/>
				</g>
			</g>
		</g>
		<g>
			<polygon style="fill:#A6A7AA;" points="971.794,296.645 945.621,317.094 964.917,324.03 895.891,478.369 797.761,443.09 
				708.783,642.038 728.835,649.247 809.114,469.752 904.792,504.148 907.244,505.029 984.971,331.24 1004.292,338.186 
				1001.13,307.191 997.965,276.196 			"/>
		</g>
	</g>
	<g>
		<path style="fill:none;" d="M1224.703,569.284l3.352-3.352c-1.016-0.736-2.26-1.175-3.608-1.175c-2.833,0-5.22,1.921-5.942,4.527
			H1224.703z"/>
		<path style="fill:none;" d="M1506.301,536.83c0.939,2.213,3.133,3.769,5.684,3.769c1.374,0,2.641-0.457,3.667-1.22l-3.936-2.549
			H1506.301z"/>
		<path style="fill:none;" d="M1402.604,511.138v-3.617h5.841c-0.826-2.436-3.13-4.197-5.841-4.197c-3.402,0-6.171,2.768-6.171,6.17
			c0,3.403,2.768,6.171,6.171,6.171c2.833,0,5.219-1.921,5.942-4.527H1402.604z"/>
		<path style="fill:none;" d="M1574.399,512.22c0.46-0.863,0.723-1.846,0.723-2.891c0-3.403-2.768-6.171-6.171-6.171
			c-2.773,0-5.124,1.84-5.899,4.362h6.648L1574.399,512.22z"/>
		<path style="fill:none;" d="M1320.296,568.201c-0.46,0.863-0.723,1.846-0.723,2.891c0,3.402,2.768,6.171,6.171,6.171
			c2.773,0,5.124-1.84,5.899-4.362h-6.648L1320.296,568.201z"/>
		<path style="fill:none;" d="M1331.644,569.284c-0.775-2.523-3.126-4.362-5.899-4.362c-1.044,0-2.028,0.263-2.891,0.723l3.64,3.64
			H1331.644z"/>
		<path style="fill:none;" d="M1563.052,511.138c0.775,2.523,3.126,4.362,5.899,4.362c1.044,0,2.028-0.263,2.891-0.723l-3.64-3.64
			H1563.052z"/>
		<path style="fill:none;" d="M1218.606,572.901c0.826,2.436,3.129,4.197,5.841,4.197c3.402,0,6.171-2.768,6.171-6.171
			c0-0.729-0.134-1.426-0.367-2.076l-4.05,4.05H1218.606z"/>
		<path style="fill:none;" d="M1517.804,536.464c0.224-0.639,0.352-1.322,0.352-2.036c0-3.402-2.768-6.17-6.171-6.17
			c-2.987,0-5.483,2.133-6.049,4.955h6.849L1517.804,536.464z"/>
		<path style="fill:none;" d="M1669.992,511.138l-3.352,3.352c1.016,0.736,2.26,1.175,3.608,1.175c2.832,0,5.219-1.921,5.941-4.527
			H1669.992z"/>
		<path style="fill:none;" d="M1676.089,507.521c-0.826-2.436-3.129-4.197-5.841-4.197c-3.402,0-6.171,2.768-6.171,6.17
			c0,0.729,0.134,1.426,0.367,2.076l4.049-4.049H1676.089z"/>
		<path style="fill:#595A5C;" d="M1446.054,507.521h-35.347c0.154,0.633,0.238,1.293,0.238,1.973c0,0.563-0.057,1.112-0.163,1.644
			h35.188c-0.123-0.529-0.194-1.078-0.194-1.644C1445.775,508.809,1445.876,508.149,1446.054,507.521z"/>
		<path style="fill:#595A5C;" d="M1504.246,483.425h-19.749c0.149,0.579,0.236,1.183,0.236,1.808c0,0.626-0.088,1.229-0.236,1.808
			h19.749c-0.149-0.579-0.237-1.183-0.237-1.808C1504.01,484.608,1504.098,484.004,1504.246,483.425z"/>
		<path style="fill:#595A5C;" d="M1471.032,488.553l-14.556,14.555c1.079,0.583,1.99,1.436,2.652,2.463l14.312-14.311
			C1472.425,490.579,1471.596,489.646,1471.032,488.553z"/>
		<path style="fill:#595A5C;" d="M1531.227,502.915l-13.825-13.824c-0.652,1.035-1.553,1.895-2.625,2.489l13.773,13.772
			C1529.221,504.331,1530.141,503.49,1531.227,502.915z"/>
		<path style="fill:#595A5C;" d="M1594.698,532.519l-18.714-18.714c-0.656,1.027-1.53,1.901-2.557,2.557l18.751,18.751
			C1592.785,534.049,1593.654,533.158,1594.698,532.519z"/>
		<path style="fill:#595A5C;" d="M1574.399,512.22l-4.699-4.699h-6.648c-0.176,0.572-0.271,1.179-0.271,1.808
			c0,0.629,0.096,1.236,0.271,1.808h5.15l3.64,3.64C1572.927,514.199,1573.82,513.306,1574.399,512.22z"/>
		<path style="fill:#595A5C;" d="M1715.577,507.521h-37.227c0.154,0.633,0.238,1.293,0.238,1.973c0,0.563-0.057,1.112-0.164,1.644
			h37.068c-0.123-0.529-0.194-1.078-0.194-1.644C1715.298,508.809,1715.399,508.149,1715.577,507.521z"/>
		<path style="fill:#595A5C;" d="M1560.81,507.521h-19.177c0.149,0.579,0.236,1.183,0.236,1.808c0,0.625-0.088,1.229-0.236,1.808
			h19.177c-0.13-0.583-0.2-1.187-0.2-1.808C1560.61,508.708,1560.68,508.104,1560.81,507.521z"/>
		<path style="fill:#595A5C;" d="M1633.287,536.896h-27.792c0.149,0.579,0.236,1.183,0.236,1.808c0,0.626-0.088,1.229-0.236,1.808
			h27.792c-0.149-0.579-0.236-1.183-0.236-1.808C1633.051,538.079,1633.139,537.475,1633.287,536.896z"/>
		<path style="fill:#595A5C;" d="M1676.189,511.138c0.145-0.524,0.229-1.074,0.229-1.644c0-0.69-0.119-1.352-0.329-1.973h-7.595
			l-4.049,4.049c0.424,1.181,1.196,2.195,2.196,2.919l3.352-3.352H1676.189z"/>
		<path style="fill:#595A5C;" d="M1662.791,513.224l-19.076,19.077c1.083,0.578,2,1.423,2.668,2.447l18.707-18.707
			C1664.131,515.284,1663.343,514.323,1662.791,513.224z"/>
		<path style="fill:#595A5C;" d="M1402.604,511.138h5.942c0.145-0.524,0.229-1.074,0.229-1.644c0-0.69-0.119-1.352-0.329-1.973
			h-5.841V511.138z"/>
		<path style="fill:#595A5C;" d="M1544.323,553.641l-24.654-15.969c-0.479,1.131-1.202,2.136-2.102,2.947l24.844,16.092
			C1542.781,555.527,1543.449,554.478,1544.323,553.641z"/>
		<path style="fill:#595A5C;" d="M1356.5,528.123l-17.794-20.553c-0.541,1.121-1.357,2.082-2.367,2.791l17.561,20.283
			C1354.54,529.6,1355.433,528.73,1356.5,528.123z"/>
		<path style="fill:#595A5C;" d="M1325.368,501.934h-63.984c0.126,0.536,0.2,1.092,0.2,1.666c0,0.677-0.1,1.329-0.273,1.95h63.706
			c-0.057-0.368-0.096-0.742-0.096-1.127C1324.92,503.547,1325.083,502.711,1325.368,501.934z"/>
		<path style="fill:#595A5C;" d="M1503.734,533.213h-136.508c0.067,0.396,0.11,0.8,0.11,1.215c0,0.843-0.151,1.649-0.415,2.402
			h137.078c-0.229-0.761-0.354-1.567-0.354-2.402C1503.645,534.015,1503.676,533.61,1503.734,533.213z"/>
		<path style="fill:#595A5C;" d="M1517.804,536.464l-5.018-3.251h-6.849c-0.079,0.393-0.122,0.799-0.122,1.215
			c0,0.851,0.173,1.663,0.487,2.402h5.415l3.936,2.549C1516.634,538.65,1517.391,537.639,1517.804,536.464z"/>
		<path style="fill:#595A5C;" d="M1247.705,506.553l-27.833,27.303l0.458,0.458l-2.557,2.557l-0.483-0.483l-28.104,27.569
			c1.235,0.354,2.335,1.024,3.205,1.922l57.582-56.486C1248.996,508.657,1248.21,507.683,1247.705,506.553z"/>
		<path style="fill:#595A5C;" d="M1220.33,534.314l-0.458-0.458l-26.368-26.367c-0.523,1.12-1.322,2.082-2.313,2.802l26.099,26.098
			l0.483,0.483L1220.33,534.314z"/>
		<path style="fill:#595A5C;" d="M1231.904,567.197l19.077-19.076c-1.083-0.578-2-1.422-2.668-2.446l-18.706,18.706
			C1230.563,565.137,1231.351,566.098,1231.904,567.197z"/>
		<path style="fill:#595A5C;" d="M1261.408,543.526h27.792c-0.149-0.579-0.236-1.183-0.236-1.808c0-0.625,0.088-1.229,0.236-1.808
			h-27.792c0.149,0.579,0.236,1.183,0.236,1.808C1261.644,542.343,1261.557,542.947,1261.408,543.526z"/>
		<path style="fill:#595A5C;" d="M1299.997,547.902l18.714,18.715c0.656-1.027,1.53-1.901,2.557-2.557l-18.751-18.751
			C1301.91,546.372,1301.041,547.264,1299.997,547.902z"/>
		<path style="fill:#595A5C;" d="M1423.663,591.868l14.555-14.555c-1.079-0.584-1.989-1.436-2.652-2.463l-14.311,14.311
			C1422.27,589.842,1423.099,590.775,1423.663,591.868z"/>
		<path style="fill:#595A5C;" d="M1218.505,569.284c-0.145,0.524-0.229,1.073-0.229,1.643c0,0.691,0.119,1.353,0.329,1.974h7.595
			l4.05-4.05c-0.424-1.181-1.196-2.195-2.196-2.919l-3.352,3.352H1218.505z"/>
		<path style="fill:#595A5C;" d="M1333.885,572.901h19.177c-0.149-0.579-0.236-1.183-0.236-1.808c0-0.625,0.088-1.229,0.236-1.808
			h-19.177c0.129,0.583,0.2,1.187,0.2,1.808C1334.085,571.713,1334.015,572.318,1333.885,572.901z"/>
		<path style="fill:#595A5C;" d="M1363.468,577.506l13.825,13.824c0.652-1.035,1.553-1.895,2.625-2.49l-13.772-13.772
			C1365.474,576.091,1364.553,576.932,1363.468,577.506z"/>
		<path style="fill:#595A5C;" d="M1390.449,596.997h19.749c-0.149-0.579-0.236-1.183-0.236-1.808c0-0.625,0.088-1.229,0.236-1.808
			h-19.749c0.149,0.579,0.236,1.183,0.236,1.808C1390.685,595.814,1390.598,596.418,1390.449,596.997z"/>
		<path style="fill:#595A5C;" d="M1448.641,572.901h36.473c-0.177-0.628-0.279-1.289-0.279-1.974c0-0.566,0.071-1.114,0.194-1.643
			h-36.303c0.123,0.529,0.194,1.077,0.194,1.643C1448.92,571.612,1448.818,572.272,1448.641,572.901z"/>
		<path style="fill:#595A5C;" d="M1180.125,569.284h-16.043c0.123,0.529,0.194,1.077,0.194,1.643c0,0.685-0.101,1.345-0.279,1.974
			h16.213c-0.177-0.628-0.279-1.289-0.279-1.974C1179.931,570.361,1180.002,569.813,1180.125,569.284z"/>
		<path style="fill:#595A5C;" d="M1194.163,572.901h22.182c-0.154-0.633-0.238-1.294-0.238-1.974c0-0.562,0.057-1.112,0.163-1.643
			h-22.022c0.123,0.529,0.194,1.077,0.194,1.643C1194.442,571.612,1194.34,572.272,1194.163,572.901z"/>
		<path style="fill:#595A5C;" d="M1320.296,568.201l4.699,4.699h6.648c0.176-0.572,0.271-1.179,0.271-1.808
			c0-0.629-0.096-1.236-0.271-1.808h-5.15l-3.64-3.64C1321.768,566.223,1320.875,567.116,1320.296,568.201z"/>
		<path style="fill:#595A5C;" d="M1216.345,572.901c0.889,3.649,4.183,6.367,8.103,6.367c4.599,0,8.341-3.742,8.341-8.341
			c0-1.34-0.32-2.607-0.884-3.73c-0.552-1.1-1.341-2.06-2.298-2.816c-1.421-1.122-3.212-1.794-5.159-1.794
			c-4.036,0-7.412,2.883-8.177,6.697c-0.107,0.531-0.163,1.081-0.163,1.643C1216.107,571.607,1216.19,572.267,1216.345,572.901z
			 M1224.447,564.757c1.348,0,2.592,0.439,3.608,1.175c1,0.724,1.772,1.737,2.196,2.919c0.233,0.65,0.367,1.347,0.367,2.076
			c0,3.402-2.768,6.171-6.171,6.171c-2.712,0-5.016-1.761-5.841-4.197c-0.21-0.621-0.329-1.283-0.329-1.974
			c0-0.57,0.084-1.119,0.229-1.643C1219.227,566.678,1221.614,564.757,1224.447,564.757z"/>
		<path style="fill:#B6986D;" d="M1250.981,548.121c1.016,0.542,2.176,0.851,3.408,0.851c3.381,0,6.214-2.316,7.019-5.447
			c0.149-0.579,0.236-1.183,0.236-1.808c0-0.625-0.088-1.229-0.236-1.808c-0.805-3.131-3.638-5.447-7.019-5.447
			c-4.007,0-7.256,3.249-7.256,7.256c0,1.461,0.436,2.819,1.179,3.958C1248.98,546.699,1249.897,547.543,1250.981,548.121z"/>
		<path style="fill:#A6A7AA;" d="M1289.2,543.526c0.805,3.13,3.638,5.447,7.019,5.447c1.386,0,2.677-0.396,3.778-1.07
			c1.043-0.639,1.913-1.53,2.521-2.594c0.605-1.06,0.956-2.283,0.956-3.591c0-4.007-3.249-7.256-7.255-7.256
			c-3.381,0-6.214,2.317-7.019,5.447c-0.149,0.579-0.236,1.183-0.236,1.808C1288.963,542.343,1289.051,542.947,1289.2,543.526z"/>
		<path style="fill:#595A5C;" d="M1318.712,566.617c-0.826,1.294-1.308,2.829-1.308,4.475c0,4.599,3.741,8.341,8.34,8.341
			c3.978,0,7.312-2.8,8.141-6.532c0.129-0.583,0.2-1.187,0.2-1.808c0-0.621-0.07-1.226-0.2-1.808
			c-0.828-3.732-4.163-6.532-8.141-6.532c-1.646,0-3.181,0.481-4.475,1.308C1320.242,564.716,1319.368,565.59,1318.712,566.617z
			 M1325.744,564.922c2.773,0,5.124,1.84,5.899,4.362c0.176,0.572,0.271,1.179,0.271,1.808c0,0.629-0.096,1.236-0.271,1.808
			c-0.775,2.523-3.126,4.362-5.899,4.362c-3.402,0-6.171-2.768-6.171-6.171c0-1.044,0.263-2.028,0.723-2.891
			c0.578-1.086,1.471-1.979,2.557-2.557C1323.717,565.184,1324.7,564.922,1325.744,564.922z"/>
		<path style="fill:#4674B7;" d="M1353.062,572.901c0.804,3.13,3.637,5.447,7.018,5.447c1.224,0,2.376-0.306,3.387-0.841
			c1.086-0.575,2.006-1.416,2.677-2.437c0.751-1.143,1.191-2.508,1.191-3.977c0-4.007-3.248-7.256-7.256-7.256
			c-3.382,0-6.214,2.317-7.018,5.447c-0.149,0.579-0.236,1.183-0.236,1.808C1352.826,571.718,1352.913,572.321,1353.062,572.901z"/>
		<path style="fill:#A6A7AA;" d="M1377.292,591.331c-0.705,1.118-1.118,2.438-1.118,3.858c0,4.007,3.248,7.256,7.255,7.256
			c3.382,0,6.215-2.317,7.019-5.447c0.149-0.579,0.236-1.183,0.236-1.808c0-0.625-0.088-1.229-0.236-1.808
			c-0.805-3.13-3.638-5.447-7.019-5.447c-1.275,0-2.471,0.331-3.512,0.908C1378.845,589.436,1377.944,590.296,1377.292,591.331z"/>
		<path style="fill:#A6A7AA;" d="M1410.198,596.997c0.805,3.13,3.637,5.447,7.019,5.447c4.007,0,7.255-3.248,7.255-7.256
			c0-1.198-0.295-2.325-0.809-3.32c-0.564-1.093-1.393-2.026-2.408-2.707c-1.154-0.775-2.543-1.228-4.038-1.228
			c-3.382,0-6.214,2.317-7.019,5.447c-0.149,0.579-0.236,1.183-0.236,1.808C1409.961,595.814,1410.049,596.418,1410.198,596.997z"/>
		<path style="fill:#A6A7AA;" d="M1438.218,577.313c1.025,0.555,2.199,0.87,3.446,0.87c3.322,0,6.116-2.235,6.977-5.282
			c0.177-0.628,0.279-1.289,0.279-1.974c0-0.566-0.071-1.114-0.194-1.643c-0.746-3.214-3.621-5.612-7.062-5.612
			c-4.007,0-7.256,3.248-7.256,7.255c0,1.446,0.428,2.791,1.158,3.923C1436.229,575.877,1437.139,576.729,1438.218,577.313z"/>
		<path style="fill:#A6A7AA;" d="M1164.082,569.284c-0.745-3.214-3.62-5.612-7.061-5.612c-4.007,0-7.255,3.248-7.255,7.255
			c0,4.007,3.248,7.255,7.255,7.255c3.322,0,6.116-2.235,6.976-5.282c0.177-0.628,0.279-1.289,0.279-1.974
			C1164.276,570.361,1164.204,569.813,1164.082,569.284z"/>
		<path style="fill:#B6986D;" d="M1485.114,572.901c0.861,3.047,3.655,5.282,6.977,5.282c4.007,0,7.256-3.248,7.256-7.255
			c0-4.006-3.248-7.255-7.256-7.255c-3.441,0-6.316,2.398-7.062,5.612c-0.122,0.529-0.194,1.077-0.194,1.643
			C1484.835,571.612,1484.937,572.272,1485.114,572.901z"/>
		<path style="fill:#595A5C;" d="M1678.35,507.521c-0.889-3.649-4.183-6.367-8.102-6.367c-4.599,0-8.34,3.741-8.34,8.34
			c0,1.34,0.32,2.607,0.884,3.73c0.552,1.1,1.34,2.06,2.298,2.817c1.421,1.122,3.212,1.794,5.159,1.794
			c4.036,0,7.411-2.882,8.176-6.697c0.107-0.532,0.164-1.081,0.164-1.644C1678.588,508.814,1678.504,508.154,1678.35,507.521z
			 M1670.248,515.664c-1.348,0-2.592-0.439-3.608-1.175c-0.999-0.724-1.771-1.738-2.196-2.919c-0.233-0.65-0.367-1.347-0.367-2.076
			c0-3.402,2.768-6.17,6.171-6.17c2.712,0,5.015,1.761,5.841,4.197c0.21,0.62,0.329,1.282,0.329,1.973
			c0,0.57-0.084,1.119-0.229,1.644C1675.467,513.744,1673.08,515.664,1670.248,515.664z"/>
		<path style="fill:#A6A7AA;" d="M1643.714,532.3c-1.017-0.542-2.176-0.852-3.409-0.852c-3.381,0-6.214,2.317-7.018,5.447
			c-0.149,0.579-0.236,1.183-0.236,1.808c0,0.626,0.088,1.229,0.236,1.808c0.805,3.13,3.638,5.447,7.018,5.447
			c4.007,0,7.256-3.249,7.256-7.256c0-1.461-0.436-2.819-1.179-3.957C1645.714,533.723,1644.798,532.878,1643.714,532.3z"/>
		<path style="fill:#4674B7;" d="M1605.495,536.896c-0.805-3.13-3.638-5.447-7.019-5.447c-1.386,0-2.677,0.396-3.778,1.07
			c-1.044,0.639-1.913,1.53-2.521,2.594c-0.605,1.06-0.956,2.283-0.956,3.591c0,4.007,3.248,7.256,7.255,7.256
			c3.382,0,6.215-2.317,7.019-5.447c0.149-0.579,0.236-1.183,0.236-1.808C1605.732,538.079,1605.644,537.475,1605.495,536.896z"/>
		<path style="fill:#595A5C;" d="M1575.983,513.805c0.827-1.294,1.308-2.829,1.308-4.475c0-4.599-3.742-8.341-8.341-8.341
			c-3.978,0-7.312,2.8-8.141,6.532c-0.13,0.583-0.2,1.187-0.2,1.808c0,0.621,0.07,1.226,0.2,1.808
			c0.828,3.732,4.163,6.532,8.141,6.532c1.646,0,3.181-0.481,4.475-1.308C1574.453,515.706,1575.327,514.832,1575.983,513.805z
			 M1568.951,515.5c-2.773,0-5.124-1.84-5.899-4.362c-0.176-0.572-0.271-1.179-0.271-1.808c0-0.629,0.096-1.236,0.271-1.808
			c0.775-2.523,3.126-4.362,5.899-4.362c3.402,0,6.171,2.768,6.171,6.171c0,1.044-0.263,2.028-0.723,2.891
			c-0.578,1.086-1.471,1.979-2.557,2.557C1570.978,515.237,1569.995,515.5,1568.951,515.5z"/>
		<path style="fill:#A6A7AA;" d="M1541.633,507.521c-0.805-3.131-3.638-5.447-7.019-5.447c-1.224,0-2.375,0.306-3.387,0.841
			c-1.085,0.575-2.006,1.416-2.677,2.437c-0.751,1.142-1.191,2.508-1.191,3.977c0,4.007,3.249,7.256,7.255,7.256
			c3.382,0,6.214-2.317,7.019-5.447c0.149-0.579,0.236-1.183,0.236-1.808C1541.869,508.704,1541.782,508.1,1541.633,507.521z"/>
		<path style="fill:#A6A7AA;" d="M1517.402,489.091c0.704-1.118,1.118-2.438,1.118-3.858c0-4.007-3.248-7.256-7.255-7.256
			c-3.382,0-6.215,2.317-7.019,5.447c-0.149,0.579-0.237,1.183-0.237,1.808c0,0.626,0.088,1.229,0.237,1.808
			c0.805,3.13,3.637,5.447,7.019,5.447c1.274,0,2.471-0.331,3.511-0.908C1515.849,490.986,1516.75,490.125,1517.402,489.091z"/>
		<path style="fill:#4674B7;" d="M1484.497,483.425c-0.805-3.131-3.638-5.447-7.019-5.447c-4.007,0-7.255,3.249-7.255,7.256
			c0,1.198,0.295,2.325,0.809,3.32c0.564,1.093,1.393,2.025,2.408,2.707c1.154,0.775,2.543,1.228,4.038,1.228
			c3.382,0,6.214-2.316,7.019-5.447c0.149-0.579,0.236-1.183,0.236-1.808C1484.734,484.608,1484.646,484.004,1484.497,483.425z"/>
		<path style="fill:#A6A7AA;" d="M1456.477,503.109c-1.025-0.554-2.199-0.87-3.446-0.87c-3.322,0-6.117,2.235-6.977,5.282
			c-0.177,0.628-0.279,1.288-0.279,1.973c0,0.566,0.071,1.115,0.194,1.644c0.746,3.214,3.621,5.612,7.062,5.612
			c4.007,0,7.256-3.249,7.256-7.256c0-1.447-0.428-2.791-1.158-3.922C1458.466,504.544,1457.556,503.692,1456.477,503.109z"/>
		<path style="fill:#A6A7AA;" d="M1722.553,502.239c-3.322,0-6.117,2.235-6.977,5.282c-0.177,0.628-0.279,1.288-0.279,1.973
			c0,0.566,0.071,1.115,0.194,1.644c0.746,3.214,3.621,5.612,7.062,5.612c4.007,0,7.256-3.249,7.256-7.256
			C1729.809,505.487,1726.561,502.239,1722.553,502.239z"/>
		<path style="fill:#595A5C;" d="M1410.707,507.521c-0.889-3.649-4.183-6.367-8.103-6.367c-4.599,0-8.341,3.741-8.341,8.34
			c0,4.599,3.742,8.341,8.341,8.341c4.036,0,7.411-2.882,8.177-6.697c0.107-0.532,0.163-1.081,0.163-1.644
			C1410.944,508.814,1410.861,508.154,1410.707,507.521z M1402.604,515.664c-3.402,0-6.171-2.768-6.171-6.171
			c0-3.402,2.768-6.17,6.171-6.17c2.712,0,5.016,1.761,5.841,4.197c0.21,0.62,0.329,1.282,0.329,1.973
			c0,0.57-0.084,1.119-0.229,1.644C1407.823,513.744,1405.437,515.664,1402.604,515.664z"/>
		<path style="fill:#4674B7;" d="M1189.186,563.958c-0.636-0.182-1.305-0.286-2-0.286c-3.441,0-6.316,2.398-7.061,5.612
			c-0.123,0.529-0.194,1.077-0.194,1.643c0,0.685,0.101,1.345,0.279,1.974c0.86,3.047,3.654,5.282,6.976,5.282
			c3.322,0,6.116-2.235,6.977-5.282c0.177-0.628,0.279-1.289,0.279-1.974c0-0.566-0.071-1.114-0.194-1.643
			c-0.303-1.305-0.955-2.475-1.856-3.405C1191.521,564.982,1190.421,564.312,1189.186,563.958z"/>
		<path style="fill:#A6A7AA;" d="M1261.383,501.934c-0.754-3.203-3.623-5.589-7.056-5.589c-4.007,0-7.255,3.248-7.255,7.256
			c0,1.053,0.229,2.05,0.632,2.953c0.505,1.131,1.291,2.105,2.269,2.841c1.214,0.914,2.718,1.462,4.354,1.462
			c3.33,0,6.13-2.246,6.983-5.305c0.173-0.622,0.273-1.274,0.273-1.95C1261.583,503.026,1261.51,502.47,1261.383,501.934z"/>
		<path style="fill:#A6A7AA;" d="M1338.705,507.569c0.46-0.953,0.725-2.017,0.725-3.146c0-4.007-3.248-7.255-7.255-7.255
			c-3.131,0-5.791,1.987-6.808,4.765c-0.285,0.778-0.448,1.614-0.448,2.49c0,0.384,0.039,0.759,0.096,1.127
			c0.542,3.471,3.536,6.129,7.159,6.129c1.55,0,2.984-0.49,4.163-1.318C1337.348,509.651,1338.165,508.69,1338.705,507.569z"/>
		<path style="fill:#A6A7AA;" d="M1367.226,533.213c-0.579-3.427-3.554-6.04-7.146-6.04c-1.303,0-2.524,0.348-3.581,0.95
			c-1.067,0.607-1.96,1.477-2.601,2.521c-0.676,1.103-1.073,2.395-1.073,3.784c0,4.007,3.248,7.256,7.255,7.256
			c3.164,0,5.848-2.029,6.84-4.854c0.264-0.753,0.415-1.559,0.415-2.402C1367.336,534.013,1367.293,533.609,1367.226,533.213z"/>
		<path style="fill:#595A5C;" d="M1519.669,537.672c0.423-0.998,0.657-2.094,0.657-3.244c0-4.599-3.741-8.34-8.34-8.34
			c-4.186,0-7.661,3.1-8.251,7.125c-0.058,0.397-0.09,0.802-0.09,1.215c0,0.835,0.125,1.641,0.354,2.402
			c1.034,3.432,4.222,5.939,7.987,5.939c2.145,0,4.103-0.814,5.582-2.149C1518.467,539.807,1519.19,538.803,1519.669,537.672z
			 M1511.985,540.599c-2.551,0-4.745-1.556-5.684-3.769c-0.313-0.739-0.487-1.55-0.487-2.402c0-0.416,0.043-0.822,0.122-1.215
			c0.566-2.822,3.063-4.955,6.049-4.955c3.402,0,6.171,2.768,6.171,6.17c0,0.714-0.128,1.397-0.352,2.036
			c-0.412,1.175-1.169,2.186-2.151,2.915C1514.626,540.141,1513.359,540.599,1511.985,540.599z"/>
		<path style="fill:#A6A7AA;" d="M1549.338,551.62c-1.947,0-3.712,0.771-5.015,2.02c-0.874,0.837-1.542,1.887-1.912,3.07
			c-0.213,0.684-0.329,1.411-0.329,2.165c0,4.007,3.249,7.255,7.256,7.255c4.006,0,7.255-3.248,7.255-7.255
			C1556.593,554.869,1553.345,551.62,1549.338,551.62z"/>
		<path style="fill:#B6986D;" d="M1193.504,507.489c0.436-0.932,0.686-1.968,0.686-3.065c0-4.007-3.248-7.255-7.256-7.255
			c-4.007,0-7.255,3.248-7.255,7.255c0,4.007,3.248,7.256,7.255,7.256c1.593,0,3.06-0.519,4.257-1.389
			C1192.182,509.571,1192.98,508.609,1193.504,507.489z"/>
	</g>
	<path style="fill:#E6E6E6;" d="M1477.479,679.301c-7.029,0-12.727,5.698-12.727,12.727c0,7.029,5.698,12.728,12.727,12.728
		c7.029,0,12.727-5.698,12.727-12.728C1490.206,685,1484.508,679.301,1477.479,679.301z"/>
	<g style="opacity:0.5;">
		<g>
			<defs>
				<rect id="SVGID_1_" x="1464.751" y="679.301" width="12.73" height="25.457"/>
			</defs>
			<clipPath id="SVGID_00000027604359594238245820000001013952400336248480_">
				<use xlink:href="#SVGID_1_"  style="overflow:visible;"/>
			</clipPath>
			<g style="clip-path:url(#SVGID_00000027604359594238245820000001013952400336248480_);">
				<path style="fill:#E6E6E6;" d="M1477.479,704.756c-7.029,0-12.727-5.698-12.727-12.728c0-7.029,5.698-12.727,12.727-12.727
					V704.756z"/>
			</g>
		</g>
	</g>
	<path style="fill:#E6E6E6;" d="M660.172,784.884c-7.029,0-12.727,5.698-12.727,12.727c0,7.03,5.698,12.728,12.727,12.728
		c7.029,0,12.727-5.698,12.727-12.728C672.899,790.582,667.2,784.884,660.172,784.884z"/>
	<g style="opacity:0.5;">
		<g>
			<defs>
				<rect id="SVGID_00000149340652089270576000000013742930928632787091_" x="647.443" y="784.883" width="12.73" height="25.457"/>
			</defs>
			<clipPath id="SVGID_00000174588814362937639330000010817854143712544689_">
				<use xlink:href="#SVGID_00000149340652089270576000000013742930928632787091_"  style="overflow:visible;"/>
			</clipPath>
			<g style="clip-path:url(#SVGID_00000174588814362937639330000010817854143712544689_);">
				<path style="fill:#E6E6E6;" d="M660.172,810.339c-7.029,0-12.727-5.698-12.727-12.728c0-7.029,5.698-12.727,12.727-12.727
					V810.339z"/>
			</g>
		</g>
	</g>
	<path style="fill:#E6E6E6;" d="M138.506,661.694c-7.029,0-12.727,5.698-12.727,12.727c0,7.03,5.698,12.728,12.727,12.728
		c7.029,0,12.727-5.698,12.727-12.728C151.233,667.392,145.535,661.694,138.506,661.694z"/>
	<g style="opacity:0.5;">
		<g>
			<defs>
				<rect id="SVGID_00000022540184396194414780000007650755470793478812_" x="125.778" y="661.693" width="12.73" height="25.457"/>
			</defs>
			<clipPath id="SVGID_00000020366851912217035540000013374983840364367779_">
				<use xlink:href="#SVGID_00000022540184396194414780000007650755470793478812_"  style="overflow:visible;"/>
			</clipPath>
			<g style="clip-path:url(#SVGID_00000020366851912217035540000013374983840364367779_);">
				<path style="fill:#E6E6E6;" d="M138.506,687.148c-7.029,0-12.727-5.698-12.727-12.728c0-7.029,5.698-12.727,12.727-12.727
					V687.148z"/>
			</g>
		</g>
	</g>
	<path style="fill:#E6E6E6;" d="M257.652,105.311c-7.029,0-12.727,5.698-12.727,12.727c0,7.03,5.698,12.728,12.727,12.728
		c7.029,0,12.727-5.698,12.727-12.728C270.379,111.008,264.681,105.311,257.652,105.311z"/>
	<g style="opacity:0.5;">
		<g>
			<defs>
				<rect id="SVGID_00000145036839028542645060000006593051130260273063_" x="244.924" y="105.31" width="12.73" height="25.457"/>
			</defs>
			<clipPath id="SVGID_00000147903628393258202900000013055110624725343384_">
				<use xlink:href="#SVGID_00000145036839028542645060000006593051130260273063_"  style="overflow:visible;"/>
			</clipPath>
			<g style="clip-path:url(#SVGID_00000147903628393258202900000013055110624725343384_);">
				<path style="fill:#E6E6E6;" d="M257.652,130.765c-7.029,0-12.727-5.698-12.727-12.728c0-7.029,5.698-12.727,12.727-12.727
					V130.765z"/>
			</g>
		</g>
	</g>
	<path style="fill:#E6E6E6;" d="M1704.423,793.161c-18.164,0-32.888,14.724-32.888,32.887c0,18.165,14.724,32.889,32.888,32.889
		s32.889-14.724,32.889-32.889C1737.312,807.885,1722.587,793.161,1704.423,793.161z"/>
	<g style="opacity:0.5;">
		<g>
			<defs>
				
					<rect id="SVGID_00000011025563991517978650000011914822157972539270_" x="1671.533" y="793.159" width="32.895" height="65.783"/>
			</defs>
			<clipPath id="SVGID_00000183235974356604862370000002887838776000261527_">
				<use xlink:href="#SVGID_00000011025563991517978650000011914822157972539270_"  style="overflow:visible;"/>
			</clipPath>
			<g style="clip-path:url(#SVGID_00000183235974356604862370000002887838776000261527_);">
				<path style="fill:#E6E6E6;" d="M1704.423,858.937c-18.164,0-32.888-14.724-32.888-32.889c0-18.163,14.724-32.887,32.888-32.887
					V858.937z"/>
			</g>
		</g>
	</g>
	<path style="fill:#E6E6E6;" d="M1106.683,243.647c-21.886,0-39.629,17.742-39.629,39.628c0,21.887,17.743,39.629,39.629,39.629
		c21.886,0,39.629-17.742,39.629-39.629C1146.312,261.389,1128.569,243.647,1106.683,243.647z"/>
	<g style="opacity:0.5;">
		<g>
			<defs>
				
					<rect id="SVGID_00000140728282473926940270000017766341633475061914_" x="1067.052" y="243.645" width="39.636" height="79.264"/>
			</defs>
			<clipPath id="SVGID_00000087375106789269154960000005929280990956548501_">
				<use xlink:href="#SVGID_00000140728282473926940270000017766341633475061914_"  style="overflow:visible;"/>
			</clipPath>
			<g style="clip-path:url(#SVGID_00000087375106789269154960000005929280990956548501_);">
				<path style="fill:#E6E6E6;" d="M1106.683,322.904c-21.886,0-39.629-17.742-39.629-39.629c0-21.886,17.743-39.628,39.629-39.628
					V322.904z"/>
			</g>
		</g>
	</g>
	<path style="fill:#E6E6E6;" d="M290.765,997.236c-14.144,0-25.61,11.465-25.61,25.609c0,14.145,11.466,25.611,25.61,25.611
		c14.144,0,25.61-11.465,25.61-25.611C316.375,1008.701,304.909,997.236,290.765,997.236z"/>
	<g style="opacity:0.5;">
		<g>
			<defs>
				
					<rect id="SVGID_00000051386029114576918700000014221350938462663866_" x="265.154" y="997.234" width="25.615" height="51.224"/>
			</defs>
			<clipPath id="SVGID_00000178187829121301630980000009103732535723101876_">
				<use xlink:href="#SVGID_00000051386029114576918700000014221350938462663866_"  style="overflow:visible;"/>
			</clipPath>
			<g style="clip-path:url(#SVGID_00000178187829121301630980000009103732535723101876_);">
				<path style="fill:#E6E6E6;" d="M290.765,1048.456c-14.144,0-25.61-11.465-25.61-25.611c0-14.144,11.466-25.609,25.61-25.609
					V1048.456z"/>
			</g>
		</g>
	</g>
</g>
</svg>
