<?xml version="1.0" encoding="UTF-8" standalone="no"?>
<!-- Created with Inkscape (http://www.inkscape.org/) -->

<svg
   width="210mm"
   height="200mm"
   viewBox="0 0 210 200"
   version="1.1"
   id="svg1"
   inkscape:export-filename="logo.png"
   inkscape:export-xdpi="96"
   inkscape:export-ydpi="96"
   xmlns:inkscape="http://www.inkscape.org/namespaces/inkscape"
   xmlns:sodipodi="http://sodipodi.sourceforge.net/DTD/sodipodi-0.dtd"
   xmlns="http://www.w3.org/2000/svg"
   xmlns:svg="http://www.w3.org/2000/svg">
  <sodipodi:namedview
     id="namedview1"
     pagecolor="#000000"
     bordercolor="#999999"
     borderopacity="1"
     inkscape:showpageshadow="2"
     inkscape:pageopacity="0"
     inkscape:pagecheckerboard="0"
     inkscape:deskcolor="#d1d1d1"
     inkscape:document-units="mm"
     inkscape:export-bgcolor="#00000000"
     inkscape:zoom="0.69219276"
     inkscape:cx="396.56583"
     inkscape:cy="561.25984"
     inkscape:window-width="1920"
     inkscape:window-height="991"
     inkscape:window-x="-9"
     inkscape:window-y="-9"
     inkscape:window-maximized="1"
     inkscape:current-layer="layer1" />
  <defs
     id="defs1" />
  <g
     inkscape:label="Layer 1"
     inkscape:groupmode="layer"
     id="layer1">
    <path
       style="fill:#ffffff;stroke-width:0.264583"
       id="path1"
       sodipodi:type="arc"
       sodipodi:cx="49.691116"
       sodipodi:cy="82.181473"
       sodipodi:rx="40"
       sodipodi:ry="40"
       sodipodi:start="1.5691953"
       sodipodi:end="1.5511319"
       sodipodi:open="true"
       sodipodi:arc-type="arc"
       d="M 49.755157,122.18142 A 40,40 0 0 1 9.6918647,82.426146 40,40 0 0 1 49.265815,42.183734 40,40 0 0 1 89.686527,81.575553 40,40 0 0 1 50.477643,122.17374" />
    <path
       style="fill:#000000;stroke-width:0.429676"
       id="path2"
       sodipodi:type="arc"
       sodipodi:cx="49.5"
       sodipodi:cy="82.181458"
       sodipodi:rx="33.440155"
       sodipodi:ry="33.440155"
       sodipodi:start="1.5691953"
       sodipodi:end="1.5511319"
       sodipodi:open="true"
       sodipodi:arc-type="arc"
       d="M 49.553539,115.62157 A 33.440155,33.440155 0 0 1 16.060471,82.386006 33.440155,33.440155 0 0 1 49.144447,48.743193 33.440155,33.440155 0 0 1 82.936318,81.674906 33.440155,33.440155 0 0 1 50.157539,115.61515" />
    <text
       xml:space="preserve"
       style="font-size:53.9044px;fill:#ffffff;stroke-width:0.631691"
       x="32.487003"
       y="102.71829"
       id="text3"
       transform="scale(1.0375586,0.96380098)"><tspan
         id="tspan3"
         style="stroke-width:0.631691"
         x="32.487003"
         y="102.71829"
         sodipodi:role="line">?</tspan></text>
    <rect
       style="fill:#ffffff;stroke-width:0.282182"
       id="rect6"
       width="5.7335906"
       height="120"
       x="100.52896"
       y="20.258688"
       ry="1.8824109" />
    <path
       style="fill:#ffffff;stroke-width:0.264583"
       id="path6"
       sodipodi:type="arc"
       sodipodi:cx="158.62935"
       sodipodi:cy="79.505798"
       sodipodi:rx="40"
       sodipodi:ry="40"
       sodipodi:start="1.5691953"
       sodipodi:end="1.5511319"
       sodipodi:open="true"
       sodipodi:arc-type="arc"
       d="M 158.69339,119.50575 A 40,40 0 0 1 118.6301,79.750472 40,40 0 0 1 158.20405,39.508059 40,40 0 0 1 198.62476,78.899878 40,40 0 0 1 159.41588,119.49806" />
    <path
       style="fill:#000000;stroke-width:0.429676"
       id="path7"
       sodipodi:type="arc"
       sodipodi:cx="158.43823"
       sodipodi:cy="79.505791"
       sodipodi:rx="33.057915"
       sodipodi:ry="33.057915"
       sodipodi:start="1.5691953"
       sodipodi:end="1.5511319"
       sodipodi:open="true"
       sodipodi:arc-type="arc"
       d="m 158.49116,112.56366 a 33.057915,33.057915 0 0 1 -33.11022,-32.855659 33.057915,33.057915 0 0 1 32.7058,-33.258256 33.057915,33.057915 0 0 1 33.40561,32.555285 33.057915,33.057915 0 0 1 -32.40409,33.55228" />
    <rect
       style="fill:#ffffff;stroke-width:0.264583"
       id="rect7"
       width="9.9816608"
       height="39.752899"
       x="76.730766"
       y="175.43178"
       ry="4.9908304"
       transform="rotate(-35.003712)"
       rx="4.9908304" />
    <text
       xml:space="preserve"
       style="font-size:22.5778px;line-height:0;letter-spacing:2.11667px;word-spacing:0.00264583px;fill:#ffffff;stroke-width:0.264583"
       x="0.76447904"
       y="160.15831"
       id="text7"><tspan
         sodipodi:role="line"
         id="tspan7"
         style="font-style:normal;font-variant:normal;font-weight:normal;font-stretch:normal;line-height:0;font-family:forun;-inkscape-font-specification:forun;letter-spacing:2.11667px;word-spacing:0.00264583px;writing-mode:lr-tb;direction:ltr;stroke-width:0.264583"
         x="0.76447904"
         y="160.15831"
         dx="0.029999999"
         dy="0.02">QuestionBanker</tspan></text>
  </g>
</svg>
